<svg xmlns="http://www.w3.org/2000/svg" width="118.869" height="84.786" viewBox="0 0 118.869 84.786">
  <g id="_16_лет" data-name="16 лет" transform="translate(0 -73.161)">
    <g id="Group_645" data-name="Group 645" transform="translate(0 72.784)">
      <path id="Path_1708" data-name="Path 1708" d="M48.481,153.016A39.923,39.923,0,0,1,24.009,94.779c1.908-.556,6.989-2.394,9.546-6.76,3.118-5.324,1.123-12.088,1.036-12.373a1.737,1.737,0,0,0-2.035-1.192c-.291.064-7.167,1.631-10.286,6.955-2.534,4.326-1.691,9.6-1.24,11.582a43.154,43.154,0,0,0-4.057,9.72,12.9,12.9,0,0,0-3.206-4.023h0C8.989,94.784,2,95.711,1.7,95.753A1.737,1.737,0,0,0,.211,97.579c.019.3.5,7.333,5.283,11.236,3.193,2.608,7.374,3.059,9.885,3.059h.061c-.05.851-.08,1.7-.08,2.56a43.313,43.313,0,0,0,1.534,11.436A12.591,12.591,0,0,0,12.73,124.2C6.674,123.024.952,127.147.711,127.323a1.737,1.737,0,0,0-.451,2.315,20.012,20.012,0,0,0,3.859,4.337,1.737,1.737,0,0,0,2.227-2.666,16.738,16.738,0,0,1-2.078-2.091c1.761-.938,4.814-2.186,7.8-1.6s5.344,2.885,6.624,4.415a13.147,13.147,0,0,1-6.968,1.719,1.737,1.737,0,0,0-.3,3.46q.531.046,1.053.045a17.415,17.415,0,0,0,8.065-2.273,43.588,43.588,0,0,0,7.752,10.353,12.9,12.9,0,0,0-5.072.858c-5.728,2.292-8.3,8.858-8.408,9.136a1.736,1.736,0,0,0,.876,2.19,19.612,19.612,0,0,0,7.636,1.68,12.759,12.759,0,0,0,4.754-.863c3.857-1.543,6.281-5.021,7.487-7.216a43.168,43.168,0,0,0,12.028,5.255,1.737,1.737,0,0,0,.891-3.357Zm-40.79-46.89C5.335,104.2,4.344,101.051,3.94,99.1c1.988,0,5.26.342,7.63,2.278h0c2.354,1.923,3.345,5.069,3.75,7.022C13.325,108.392,10.044,108.048,7.691,106.126ZM25.267,83.164c1.536-2.623,4.491-4.088,6.358-4.789.3,1.972.469,5.266-1.067,7.888s-4.491,4.088-6.358,4.789C23.9,89.08,23.731,85.786,25.267,83.164Zm1.517,71.945c-2.825,1.13-6.061.472-7.964-.119.965-1.739,2.846-4.437,5.687-5.573,2.825-1.13,6.061-.472,7.964.119C31.507,151.275,29.626,153.973,26.784,155.109Z" transform="translate(0 -74.035)" fill="#b76830"/>
      <path id="Path_1709" data-name="Path 1709" d="M347.469,127.323c-.241-.176-5.963-4.3-12.018-3.118a12.589,12.589,0,0,0-4.164,1.666,43.3,43.3,0,0,0,1.534-11.436c0-.856-.03-1.71-.08-2.561h.06a18.865,18.865,0,0,0,5.871-.893,1.737,1.737,0,1,0-1.1-3.294,15.333,15.333,0,0,1-4.71.713c.4-1.954,1.4-5.1,3.75-7.023s5.635-2.267,7.629-2.273a14.768,14.768,0,0,1-1.99,5.044,1.737,1.737,0,1,0,2.9,1.916,19.25,19.25,0,0,0,2.824-8.484,1.737,1.737,0,0,0-1.492-1.827c-.3-.042-7.286-.969-12.064,2.935a12.9,12.9,0,0,0-3.206,4.023,43.154,43.154,0,0,0-4.057-9.72c.451-1.979,1.294-7.256-1.24-11.582-3.119-5.324-9.995-6.891-10.286-6.955a1.737,1.737,0,0,0-2.036,1.192c-.087.285-2.082,7.049,1.036,12.373,2.557,4.366,7.639,6.2,9.547,6.76A39.923,39.923,0,0,1,299.7,153.017a1.737,1.737,0,0,0,.891,3.357,43.163,43.163,0,0,0,12.028-5.255c1.206,2.195,3.631,5.673,7.487,7.216a12.755,12.755,0,0,0,4.753.863,19.618,19.618,0,0,0,7.636-1.68,1.737,1.737,0,0,0,.876-2.19c-.107-.278-2.68-6.845-8.408-9.136a12.9,12.9,0,0,0-5.071-.858,43.59,43.59,0,0,0,7.751-10.352,17.405,17.405,0,0,0,8.066,2.273,11.709,11.709,0,0,0,2.244-.212c6.056-1.181,9.811-7.15,9.967-7.4A1.737,1.737,0,0,0,347.469,127.323Zm-23.8,22.094c2.825,1.13,4.714,3.838,5.684,5.58-1.9.594-5.121,1.25-7.962.113-2.825-1.13-4.714-3.838-5.684-5.58C317.61,148.936,320.833,148.28,323.674,149.417Zm-6.051-63.153c-1.537-2.623-1.369-5.917-1.068-7.888,1.868.7,4.822,2.166,6.358,4.789s1.369,5.917,1.068,7.888C322.113,90.352,319.159,88.886,317.623,86.264Zm19.666,47.369c-2.986.582-6.042-.669-7.8-1.606,1.273-1.528,3.625-3.827,6.629-4.412,2.987-.582,6.043.669,7.8,1.606C342.645,130.749,340.293,133.048,337.289,133.633Z" transform="translate(-229.312 -74.036)" fill="#b76830"/>
      <g id="Group_1043" data-name="Group 1043" transform="translate(36.094 19.477)">
        <g id="Group_1042" data-name="Group 1042" transform="translate(0 0)">
          <path id="Path_2470" data-name="Path 2470" d="M201.381,113.214a4.1,4.1,0,0,0-4.577,1.412l-7.461,9.848a4.1,4.1,0,1,0,6.542,4.956l.086-.114v22.256a4.1,4.1,0,1,0,8.207,0V117.1A4.1,4.1,0,0,0,201.381,113.214Zm.559,38.358a1.865,1.865,0,0,1-3.73,0V125.985a1.119,1.119,0,0,0-2.011-.676l-2.1,2.769a1.865,1.865,0,0,1-2.974-2.253l7.461-9.848a1.865,1.865,0,0,1,3.352,1.126Z" transform="translate(-188.512 -113)" fill="#b76830" stroke="#b76830" stroke-width="0.5"/>
        </g>
      </g>
      <g id="Group_1052" data-name="Group 1052" transform="translate(58.765 19.477)">
        <g id="Group_1049" data-name="Group 1049" transform="translate(5.969 23.203)">
          <g id="Group_1048" data-name="Group 1048" transform="translate(0 0)">
            <path id="Path_2473" data-name="Path 2473" d="M224.521,268.5A5.527,5.527,0,0,0,219,274.021v2.462a5.521,5.521,0,1,0,11.042,0v-2.462A5.527,5.527,0,0,0,224.521,268.5Zm3.283,7.983a3.283,3.283,0,1,1-6.565,0v-2.462a3.283,3.283,0,1,1,6.565,0Z" transform="translate(-219 -268.5)" fill="#b76830" stroke="#b76830" stroke-width="0.5"/>
          </g>
        </g>
        <g id="Group_1051" data-name="Group 1051" transform="translate(0 0)">
          <g id="Group_1050" data-name="Group 1050" transform="translate(0 0)">
            <path id="Path_2474" data-name="Path 2474" d="M190.489,130.234a11.409,11.409,0,0,0-3.283.477v-6.221a3.283,3.283,0,1,1,6.565,0,4.1,4.1,0,1,0,8.207,0,11.489,11.489,0,1,0-22.979,0v19.7a11.489,11.489,0,1,0,22.979,0v-2.462A11.5,11.5,0,0,0,190.489,130.234Zm9.251,13.951a9.251,9.251,0,1,1-18.5,0v-19.7a9.251,9.251,0,1,1,18.5,0,1.865,1.865,0,1,1-3.73,0,5.521,5.521,0,1,0-11.042,0v7.845a1.119,1.119,0,0,0,1.6,1.013,9.148,9.148,0,0,1,3.925-.875,9.262,9.262,0,0,1,9.251,9.251v2.462Z" transform="translate(-179 -113)" fill="#b76830" stroke="#b76830" stroke-width="0.5"/>
          </g>
        </g>
      </g>
    </g>
    <path id="Path_1711" data-name="Path 1711" d="M49.95,338.306" transform="translate(-38.384 -204.04)" fill="none" stroke="#000" stroke-linecap="round" stroke-linejoin="round" stroke-miterlimit="10" stroke-width="15"/>
    <path id="Path_1712" data-name="Path 1712" d="M22.6,325.885" transform="translate(-17.367 -194.495)" fill="none" stroke="#000" stroke-linecap="round" stroke-linejoin="round" stroke-miterlimit="10" stroke-width="15"/>
  </g>
</svg>
