<svg xmlns="http://www.w3.org/2000/svg" width="118.869" height="84.786" viewBox="0 0 118.869 84.786">
  <g id="качество" transform="translate(0 -73.161)">
    <g id="Group_645" data-name="Group 645" transform="translate(0 72.784)">
      <path id="Path_1708" data-name="Path 1708" d="M48.481,153.016A39.923,39.923,0,0,1,24.009,94.779c1.908-.556,6.989-2.394,9.546-6.76,3.118-5.324,1.123-12.088,1.036-12.373a1.737,1.737,0,0,0-2.035-1.192c-.291.064-7.167,1.631-10.286,6.955-2.534,4.326-1.691,9.6-1.24,11.582a43.154,43.154,0,0,0-4.057,9.72,12.9,12.9,0,0,0-3.206-4.023h0C8.989,94.784,2,95.711,1.7,95.753A1.737,1.737,0,0,0,.211,97.579c.019.3.5,7.333,5.283,11.236,3.193,2.608,7.374,3.059,9.885,3.059h.061c-.05.851-.08,1.7-.08,2.56a43.313,43.313,0,0,0,1.534,11.436A12.591,12.591,0,0,0,12.73,124.2C6.674,123.024.952,127.147.711,127.323a1.737,1.737,0,0,0-.451,2.315,20.012,20.012,0,0,0,3.859,4.337,1.737,1.737,0,0,0,2.227-2.666,16.738,16.738,0,0,1-2.078-2.091c1.761-.938,4.814-2.186,7.8-1.6s5.344,2.885,6.624,4.415a13.147,13.147,0,0,1-6.968,1.719,1.737,1.737,0,0,0-.3,3.46q.531.046,1.053.045a17.415,17.415,0,0,0,8.065-2.273,43.588,43.588,0,0,0,7.752,10.353,12.9,12.9,0,0,0-5.072.858c-5.728,2.292-8.3,8.858-8.408,9.136a1.736,1.736,0,0,0,.876,2.19,19.612,19.612,0,0,0,7.636,1.68,12.759,12.759,0,0,0,4.754-.863c3.857-1.543,6.281-5.021,7.487-7.216a43.168,43.168,0,0,0,12.028,5.255,1.737,1.737,0,0,0,.891-3.357Zm-40.79-46.89C5.335,104.2,4.344,101.051,3.94,99.1c1.988,0,5.26.342,7.63,2.278h0c2.354,1.923,3.345,5.069,3.75,7.022C13.325,108.392,10.044,108.048,7.691,106.126ZM25.267,83.164c1.536-2.623,4.491-4.088,6.358-4.789.3,1.972.469,5.266-1.067,7.888s-4.491,4.088-6.358,4.789C23.9,89.08,23.731,85.786,25.267,83.164Zm1.517,71.945c-2.825,1.13-6.061.472-7.964-.119.965-1.739,2.846-4.437,5.687-5.573,2.825-1.13,6.061-.472,7.964.119C31.507,151.275,29.626,153.973,26.784,155.109Z" transform="translate(0 -74.035)" fill="#b76830"/>
      <path id="Path_1709" data-name="Path 1709" d="M347.469,127.323c-.241-.176-5.963-4.3-12.018-3.118a12.589,12.589,0,0,0-4.164,1.666,43.3,43.3,0,0,0,1.534-11.436c0-.856-.03-1.71-.08-2.561h.06a18.865,18.865,0,0,0,5.871-.893,1.737,1.737,0,1,0-1.1-3.294,15.333,15.333,0,0,1-4.71.713c.4-1.954,1.4-5.1,3.75-7.023s5.635-2.267,7.629-2.273a14.768,14.768,0,0,1-1.99,5.044,1.737,1.737,0,1,0,2.9,1.916,19.25,19.25,0,0,0,2.824-8.484,1.737,1.737,0,0,0-1.492-1.827c-.3-.042-7.286-.969-12.064,2.935a12.9,12.9,0,0,0-3.206,4.023,43.154,43.154,0,0,0-4.057-9.72c.451-1.979,1.294-7.256-1.24-11.582-3.119-5.324-9.995-6.891-10.286-6.955a1.737,1.737,0,0,0-2.036,1.192c-.087.285-2.082,7.049,1.036,12.373,2.557,4.366,7.639,6.2,9.547,6.76A39.923,39.923,0,0,1,299.7,153.017a1.737,1.737,0,0,0,.891,3.357,43.163,43.163,0,0,0,12.028-5.255c1.206,2.195,3.631,5.673,7.487,7.216a12.755,12.755,0,0,0,4.753.863,19.618,19.618,0,0,0,7.636-1.68,1.737,1.737,0,0,0,.876-2.19c-.107-.278-2.68-6.845-8.408-9.136a12.9,12.9,0,0,0-5.071-.858,43.59,43.59,0,0,0,7.751-10.352,17.405,17.405,0,0,0,8.066,2.273,11.709,11.709,0,0,0,2.244-.212c6.056-1.181,9.811-7.15,9.967-7.4A1.737,1.737,0,0,0,347.469,127.323Zm-23.8,22.094c2.825,1.13,4.714,3.838,5.684,5.58-1.9.594-5.121,1.25-7.962.113-2.825-1.13-4.714-3.838-5.684-5.58C317.61,148.936,320.833,148.28,323.674,149.417Zm-6.051-63.153c-1.537-2.623-1.369-5.917-1.068-7.888,1.868.7,4.822,2.166,6.358,4.789s1.369,5.917,1.068,7.888C322.113,90.352,319.159,88.886,317.623,86.264Zm19.666,47.369c-2.986.582-6.042-.669-7.8-1.606,1.273-1.528,3.625-3.827,6.629-4.412,2.987-.582,6.043.669,7.8,1.606C342.645,130.749,340.293,133.048,337.289,133.633Z" transform="translate(-229.312 -74.036)" fill="#b76830"/>
      <g id="like_1_" data-name="like (1)" transform="translate(8.582 8.638)">
        <g id="Group_1013" data-name="Group 1013" transform="translate(58.972)">
          <g id="Group_1012" data-name="Group 1012">
            <path id="Path_2455" data-name="Path 2455" d="M337.064,0A1.064,1.064,0,0,0,336,1.064V5.956a1.064,1.064,0,1,0,2.127,0V1.064A1.064,1.064,0,0,0,337.064,0Z" transform="translate(-336)" fill="#b76830" stroke="#b76830" stroke-width="1"/>
          </g>
        </g>
        <g id="Group_1015" data-name="Group 1015" transform="translate(34.509 33.184)">
          <g id="Group_1014" data-name="Group 1014" transform="translate(0)">
            <path id="Path_2456" data-name="Path 2456" d="M107.064,312a1.064,1.064,0,1,0,1.064,1.064A1.064,1.064,0,0,0,107.064,312Z" transform="translate(-106 -312)" fill="#b76830" stroke="#b76830" stroke-width="1"/>
          </g>
        </g>
        <g id="Group_1017" data-name="Group 1017" transform="translate(26 11.274)">
          <g id="Group_1016" data-name="Group 1016">
            <path id="Path_2457" data-name="Path 2457" d="M74.926,125.783a4.259,4.259,0,0,0-4.254-4.254h-7.94a26.71,26.71,0,0,0,1.631-10.154,12.115,12.115,0,0,0-.075-1.223,4.254,4.254,0,0,0-8.506.1v1.064c0,6.727-8.638,10.506-15.157,12.127a3.2,3.2,0,0,0-2.924-1.917H27.064A1.064,1.064,0,0,0,26,122.592v25.527a1.064,1.064,0,0,0,1.064,1.064H37.7a3.2,3.2,0,0,0,2.914-1.894q.81.208,1.5.39a34.5,34.5,0,0,0,10.734,1.5H64.29a4.252,4.252,0,0,0,3.534-6.62,4.267,4.267,0,0,0,2.135-6.384,4.253,4.253,0,0,0,2.119-6.379A4.256,4.256,0,0,0,74.926,125.783ZM38.763,145.992a1.065,1.065,0,0,1-1.064,1.064H28.127v-23.4H37.7a1.065,1.065,0,0,1,1.064,1.064ZM70.671,127.91H65.353a1.064,1.064,0,1,0,0,2.127h3.191a2.127,2.127,0,0,1,0,4.254H63.226a1.064,1.064,0,0,0,0,2.127h3.191a2.127,2.127,0,1,1,0,4.254H61.1a1.064,1.064,0,1,0,0,2.127H64.29a2.127,2.127,0,0,1,0,4.254H52.852a32.449,32.449,0,0,1-10.2-1.435q-.8-.21-1.765-.457v-19.59c7.7-1.833,17.018-6.309,17.018-14.255v-1.064a2.127,2.127,0,0,1,4.254,0v0a24.967,24.967,0,0,1-1.736,11.274H56.845a1.064,1.064,0,1,0,0,2.127H70.671a2.127,2.127,0,0,1,0,4.254Z" transform="translate(-26 -106)" fill="#b76830" stroke="#b76830" stroke-width="1"/>
          </g>
        </g>
        <g id="Group_1019" data-name="Group 1019" transform="translate(34.509 37.439)">
          <g id="Group_1018" data-name="Group 1018" transform="translate(0)">
            <path id="Path_2458" data-name="Path 2458" d="M107.064,352A1.064,1.064,0,0,0,106,353.064v8.509a1.064,1.064,0,0,0,2.127,0v-8.509A1.064,1.064,0,0,0,107.064,352Z" transform="translate(-106 -352)" fill="#b76830" stroke="#b76830" stroke-width="1"/>
          </g>
        </g>
        <g id="Group_1021" data-name="Group 1021" transform="translate(46.208 13.401)">
          <g id="Group_1020" data-name="Group 1020">
            <path id="Path_2459" data-name="Path 2459" d="M221.318,126h-4.254a1.064,1.064,0,1,0,0,2.127h4.254a1.064,1.064,0,0,0,0-2.127Z" transform="translate(-216 -126)" fill="#b76830" stroke="#b76830" stroke-width="1"/>
          </g>
        </g>
        <g id="Group_1023" data-name="Group 1023" transform="translate(67.481 13.401)">
          <g id="Group_1022" data-name="Group 1022">
            <path id="Path_2460" data-name="Path 2460" d="M421.318,126h-4.254a1.064,1.064,0,0,0,0,2.127h4.254a1.064,1.064,0,1,0,0-2.127Z" transform="translate(-416 -126)" fill="#b76830" stroke="#b76830" stroke-width="1"/>
          </g>
        </g>
        <g id="Group_1025" data-name="Group 1025" transform="translate(64.989 4.377)">
          <g id="Group_1024" data-name="Group 1024" transform="translate(0)">
            <path id="Path_2461" data-name="Path 2461" d="M397.394,41.462a1.064,1.064,0,0,0-1.5,0l-3.008,3.008a1.064,1.064,0,0,0,1.5,1.5l3.008-3.008A1.064,1.064,0,0,0,397.394,41.462Z" transform="translate(-392.57 -41.151)" fill="#b76830" stroke="#b76830" stroke-width="1"/>
          </g>
        </g>
        <g id="Group_1027" data-name="Group 1027" transform="translate(49.947 4.377)">
          <g id="Group_1026" data-name="Group 1026">
            <path id="Path_2462" data-name="Path 2462" d="M255.974,44.47l-3.008-3.008a1.064,1.064,0,0,0-1.5,1.5l3.008,3.008a1.064,1.064,0,0,0,1.5-1.5Z" transform="translate(-251.15 -41.151)" fill="#b76830" stroke="#b76830" stroke-width="1"/>
          </g>
        </g>
      </g>
    </g>
    <path id="Path_1711" data-name="Path 1711" d="M49.95,338.306" transform="translate(-38.384 -204.04)" fill="none" stroke="#000" stroke-linecap="round" stroke-linejoin="round" stroke-miterlimit="10" stroke-width="15"/>
    <path id="Path_1712" data-name="Path 1712" d="M22.6,325.885" transform="translate(-17.367 -194.495)" fill="none" stroke="#000" stroke-linecap="round" stroke-linejoin="round" stroke-miterlimit="10" stroke-width="15"/>
  </g>
</svg>
