<svg xmlns="http://www.w3.org/2000/svg" width="118.869" height="84.786" viewBox="0 0 118.869 84.786">
  <g id="соответствие" transform="translate(0 -73.161)">
    <g id="Group_645" data-name="Group 645" transform="translate(0 72.784)">
      <path id="Path_1708" data-name="Path 1708" d="M48.481,153.016A39.923,39.923,0,0,1,24.009,94.779c1.908-.556,6.989-2.394,9.546-6.76,3.118-5.324,1.123-12.088,1.036-12.373a1.737,1.737,0,0,0-2.035-1.192c-.291.064-7.167,1.631-10.286,6.955-2.534,4.326-1.691,9.6-1.24,11.582a43.154,43.154,0,0,0-4.057,9.72,12.9,12.9,0,0,0-3.206-4.023h0C8.989,94.784,2,95.711,1.7,95.753A1.737,1.737,0,0,0,.211,97.579c.019.3.5,7.333,5.283,11.236,3.193,2.608,7.374,3.059,9.885,3.059h.061c-.05.851-.08,1.7-.08,2.56a43.313,43.313,0,0,0,1.534,11.436A12.591,12.591,0,0,0,12.73,124.2C6.674,123.024.952,127.147.711,127.323a1.737,1.737,0,0,0-.451,2.315,20.012,20.012,0,0,0,3.859,4.337,1.737,1.737,0,0,0,2.227-2.666,16.738,16.738,0,0,1-2.078-2.091c1.761-.938,4.814-2.186,7.8-1.6s5.344,2.885,6.624,4.415a13.147,13.147,0,0,1-6.968,1.719,1.737,1.737,0,0,0-.3,3.46q.531.046,1.053.045a17.415,17.415,0,0,0,8.065-2.273,43.588,43.588,0,0,0,7.752,10.353,12.9,12.9,0,0,0-5.072.858c-5.728,2.292-8.3,8.858-8.408,9.136a1.736,1.736,0,0,0,.876,2.19,19.612,19.612,0,0,0,7.636,1.68,12.759,12.759,0,0,0,4.754-.863c3.857-1.543,6.281-5.021,7.487-7.216a43.168,43.168,0,0,0,12.028,5.255,1.737,1.737,0,0,0,.891-3.357Zm-40.79-46.89C5.335,104.2,4.344,101.051,3.94,99.1c1.988,0,5.26.342,7.63,2.278h0c2.354,1.923,3.345,5.069,3.75,7.022C13.325,108.392,10.044,108.048,7.691,106.126ZM25.267,83.164c1.536-2.623,4.491-4.088,6.358-4.789.3,1.972.469,5.266-1.067,7.888s-4.491,4.088-6.358,4.789C23.9,89.08,23.731,85.786,25.267,83.164Zm1.517,71.945c-2.825,1.13-6.061.472-7.964-.119.965-1.739,2.846-4.437,5.687-5.573,2.825-1.13,6.061-.472,7.964.119C31.507,151.275,29.626,153.973,26.784,155.109Z" transform="translate(0 -74.035)" fill="#b76830"/>
      <path id="Path_1709" data-name="Path 1709" d="M347.469,127.323c-.241-.176-5.963-4.3-12.018-3.118a12.589,12.589,0,0,0-4.164,1.666,43.3,43.3,0,0,0,1.534-11.436c0-.856-.03-1.71-.08-2.561h.06a18.865,18.865,0,0,0,5.871-.893,1.737,1.737,0,1,0-1.1-3.294,15.333,15.333,0,0,1-4.71.713c.4-1.954,1.4-5.1,3.75-7.023s5.635-2.267,7.629-2.273a14.768,14.768,0,0,1-1.99,5.044,1.737,1.737,0,1,0,2.9,1.916,19.25,19.25,0,0,0,2.824-8.484,1.737,1.737,0,0,0-1.492-1.827c-.3-.042-7.286-.969-12.064,2.935a12.9,12.9,0,0,0-3.206,4.023,43.154,43.154,0,0,0-4.057-9.72c.451-1.979,1.294-7.256-1.24-11.582-3.119-5.324-9.995-6.891-10.286-6.955a1.737,1.737,0,0,0-2.036,1.192c-.087.285-2.082,7.049,1.036,12.373,2.557,4.366,7.639,6.2,9.547,6.76A39.923,39.923,0,0,1,299.7,153.017a1.737,1.737,0,0,0,.891,3.357,43.163,43.163,0,0,0,12.028-5.255c1.206,2.195,3.631,5.673,7.487,7.216a12.755,12.755,0,0,0,4.753.863,19.618,19.618,0,0,0,7.636-1.68,1.737,1.737,0,0,0,.876-2.19c-.107-.278-2.68-6.845-8.408-9.136a12.9,12.9,0,0,0-5.071-.858,43.59,43.59,0,0,0,7.751-10.352,17.405,17.405,0,0,0,8.066,2.273,11.709,11.709,0,0,0,2.244-.212c6.056-1.181,9.811-7.15,9.967-7.4A1.737,1.737,0,0,0,347.469,127.323Zm-23.8,22.094c2.825,1.13,4.714,3.838,5.684,5.58-1.9.594-5.121,1.25-7.962.113-2.825-1.13-4.714-3.838-5.684-5.58C317.61,148.936,320.833,148.28,323.674,149.417Zm-6.051-63.153c-1.537-2.623-1.369-5.917-1.068-7.888,1.868.7,4.822,2.166,6.358,4.789s1.369,5.917,1.068,7.888C322.113,90.352,319.159,88.886,317.623,86.264Zm19.666,47.369c-2.986.582-6.042-.669-7.8-1.606,1.273-1.528,3.625-3.827,6.629-4.412,2.987-.582,6.043.669,7.8,1.606C342.645,130.749,340.293,133.048,337.289,133.633Z" transform="translate(-229.312 -74.036)" fill="#b76830"/>
      <g id="success" transform="translate(33.582 14.999)">
        <g id="Group_1029" data-name="Group 1029" transform="translate(16.17 17.831)">
          <g id="Group_1028" data-name="Group 1028">
            <path id="Path_2463" data-name="Path 2463" d="M166.019,181.5a.983.983,0,0,0-1.382.156l-.016.021a.984.984,0,1,0,1.538,1.226l.016-.021A.984.984,0,0,0,166.019,181.5Z" transform="translate(-164.407 -181.29)" fill="#b76830" stroke="#b76830" stroke-width="1"/>
          </g>
        </g>
        <g id="Group_1031" data-name="Group 1031" transform="translate(18.753 13.967)">
          <g id="Group_1030" data-name="Group 1030">
            <path id="Path_2464" data-name="Path 2464" d="M205.028,145.291a11.216,11.216,0,0,0-13.893-1.568.984.984,0,1,0,1.048,1.665,9.193,9.193,0,0,1,11.455,1.294.984.984,0,1,0,1.391-1.391Z" transform="translate(-190.675 -142.008)" fill="#b76830" stroke="#b76830" stroke-width="1"/>
          </g>
        </g>
        <g id="Group_1033" data-name="Group 1033" transform="translate(9.31 9.766)">
          <g id="Group_1032" data-name="Group 1032">
            <path id="Path_2465" data-name="Path 2465" d="M135.4,104.034l-4.451-4.451a.984.984,0,0,0-1.391,0L110.474,118.67l-9.684-9.684a.984.984,0,0,0-1.391,0l-4.451,4.451a.983.983,0,0,0,0,1.391l14.831,14.831a.984.984,0,0,0,1.391,0l9.052-9.052a.984.984,0,1,0-1.391-1.391l-8.356,8.356-13.44-13.44,3.06-3.06,9.684,9.684a.984.984,0,0,0,1.391,0l19.087-19.087,3.06,3.06-9.372,9.372a.984.984,0,1,0,1.391,1.391L135.4,105.425A.984.984,0,0,0,135.4,104.034Z" transform="translate(-94.66 -99.295)" fill="#b76830" stroke="#b76830" stroke-width="1"/>
          </g>
        </g>
        <g id="Group_1035" data-name="Group 1035" transform="translate(35.89 26.7)">
          <g id="Group_1034" data-name="Group 1034">
            <path id="Path_2466" data-name="Path 2466" d="M366.6,271.76a.985.985,0,1,0,.287.7A.993.993,0,0,0,366.6,271.76Z" transform="translate(-364.917 -271.472)" fill="#b76830" stroke="#b76830" stroke-width="1"/>
          </g>
        </g>
        <g id="Group_1037" data-name="Group 1037" transform="translate(0 0.001)">
          <g id="Group_1036" data-name="Group 1036" transform="translate(0 0)">
            <path id="Path_2467" data-name="Path 2467" d="M50.032,30.757,48.9,29.732A6.145,6.145,0,0,1,46.873,25.2a1,1,0,0,0-.954-1.008.984.984,0,0,0-1.013.983,8.114,8.114,0,0,0,2.673,6.013l.62.559-2.1,5.057-.836-.043a8.1,8.1,0,0,0-8.5,8.5l.043.836-5.057,2.1-.559-.62a8.1,8.1,0,0,0-12.027,0l-.559.62-5.057-2.1.043-.836a8.1,8.1,0,0,0-8.5-8.5l-.836.043-2.1-5.057.621-.561A8.112,8.112,0,0,0,5.45,25.177a8.11,8.11,0,0,0-2.671-6.01l-.621-.561,2.1-5.057.836.043a8.1,8.1,0,0,0,8.5-8.5l-.043-.836,5.057-2.1.561.621A8.113,8.113,0,0,0,25.18,5.451,8.11,8.11,0,0,0,31.19,2.78l.561-.621,5.057,2.1-.043.836a8.113,8.113,0,0,0,1.626,5.294A.984.984,0,1,0,39.958,9.2a6.142,6.142,0,0,1-1.228-4l.078-1.529A.984.984,0,0,0,38.2,2.7L31.863.076a.983.983,0,0,0-1.107.249L29.73,1.462a6.143,6.143,0,0,1-4.554,2.022,6.14,6.14,0,0,1-4.55-2.022L19.6.325A.983.983,0,0,0,18.493.076L12.154,2.705a.983.983,0,0,0-.605.959l.078,1.529a6.13,6.13,0,0,1-6.435,6.435l-1.529-.078a.983.983,0,0,0-.959.605L.075,18.494A.984.984,0,0,0,.324,19.6l1.137,1.026a6.143,6.143,0,0,1,2.022,4.554,6.14,6.14,0,0,1-2.022,4.55L.324,30.757a.984.984,0,0,0-.249,1.107L2.7,38.2a.984.984,0,0,0,.959.605l1.529-.078a6.13,6.13,0,0,1,6.435,6.435l-.078,1.529a.983.983,0,0,0,.605.959l6.339,2.629a.984.984,0,0,0,1.107-.249L20.625,48.9a6.135,6.135,0,0,1,9.107,0l1.025,1.135a.983.983,0,0,0,1.107.249L38.2,47.652a.983.983,0,0,0,.605-.959l-.078-1.529a6.13,6.13,0,0,1,6.435-6.435l1.529.078a.986.986,0,0,0,.959-.605l2.629-6.339A.983.983,0,0,0,50.032,30.757Z" transform="translate(0 -0.001)" fill="#b76830" stroke="#b76830" stroke-width="1"/>
          </g>
        </g>
      </g>
    </g>
    <path id="Path_1711" data-name="Path 1711" d="M49.95,338.306" transform="translate(-38.384 -204.04)" fill="none" stroke="#000" stroke-linecap="round" stroke-linejoin="round" stroke-miterlimit="10" stroke-width="15"/>
    <path id="Path_1712" data-name="Path 1712" d="M22.6,325.885" transform="translate(-17.367 -194.495)" fill="none" stroke="#000" stroke-linecap="round" stroke-linejoin="round" stroke-miterlimit="10" stroke-width="15"/>
  </g>
</svg>
