<svg xmlns="http://www.w3.org/2000/svg" width="170.538" height="81.336" viewBox="0 0 170.538 81.336">
  <g id="газпромнефть" transform="translate(0.036 -0.05)">
    <path id="Path_1997" data-name="Path 1997" d="M453.554,391.075c-5.154,0-10.325.017-15.479.017H341.038c-1.088-.017-1.138-.033-1.138-1.121V373.153c0-1.054.084-1.138,1.155-1.138,12.55,0,25.1-.05,37.651.033,4.183.034,8.367.1,12.55.05,18.658-.2,37.316-.033,55.957-.067,2.108,0,4.234,0,6.342-.033Zm-51.389-9.923h0v-1.339c-.017-2.845-.519-3.38-3.347-3.614a.828.828,0,0,1-.837-.535c-.184-.485-2.376-.72-2.51-.268-.268.937-.954.753-1.59.82-1.774.184-2.393.837-2.594,2.644a22.734,22.734,0,0,0,.033,5,2.3,2.3,0,0,0,1.874,2.175,6.964,6.964,0,0,0,1.322.167c.469.017.837.1.853.669.017.385.268.519.619.519h1.422c.234,0,.519-.05.535-.3.067-.937.736-.853,1.389-.9,2.025-.151,2.828-1,2.845-3.046C402.182,382.49,402.166,381.821,402.166,381.152Zm-50.033.167c0-1.456.017-2.895,0-4.351-.017-1.941.284-1.724-1.824-1.757-.619-.017-.853.218-.837.837.017,1.037-.017,2.058,0,3.1.017.619-.234.92-.887.9-.619-.017-.837-.284-.82-.87.017-.786,0-1.556,0-2.343-.017-1.757.184-1.556-1.623-1.623-.837-.033-1.037.3-1.021,1.071.034,3.129.017,6.242.017,9.371,0,1.824,0,1.807,1.874,1.74.586-.017.786-.251.786-.8-.017-1.255,0-2.51,0-3.765,0-.569.218-.8.786-.8s.9.167.9.8v2.845c0,1.79,0,1.774,1.79,1.74.653-.017.887-.234.887-.887C352.1,384.783,352.116,383.059,352.132,381.319Zm17.135-.017c0,1.724.017,3.464-.017,5.187-.017.7.251.92.937.92,1.64-.033,3.3-.033,4.936,0,.753.017.971-.284.937-.987-.033-1.138-.017-1.155-1.171-1.155h-.753c-2.309-.033-2.075.368-2.075-2.192v-.167c0-.485.218-.72.72-.7.586.017,1.171-.033,1.757,0,.8.067,1.1-.251,1.054-1.054-.05-1.038-.067-1.088-1.088-1.1h-.753c-1.757,0-1.74,0-1.707-1.74.017-.669.234-.987.937-.954.72.033,1.456-.033,2.175.017.887.067.9-.452.9-1.1,0-.636-.033-1.071-.87-1.054-1.707.05-3.4.033-5.1,0-.6-.017-.837.2-.837.82C369.284,377.788,369.267,379.545,369.267,381.3Zm72.072-.1v5.355c0,.469.084.837.669.82,1.305-.017,2.627.033,3.932-.067a2.388,2.388,0,0,0,2.393-2.577c.017-.753.033-1.506-.017-2.259a2.15,2.15,0,0,0-2.025-2.259,6.693,6.693,0,0,0-1.406-.151c-.7.017-.937-.3-.9-.954.033-.72.017-1.456,0-2.175-.017-1.874.251-1.673-1.79-1.707-.669-.017-.887.251-.87.887C441.356,377.805,441.339,379.512,441.339,381.2ZM422.1,382.373V379.11c0-1.59,0-1.606,1.523-1.757.786-.084.619-.653.636-1.121,0-.452.117-1.021-.636-1.021h-5.756a.536.536,0,0,0-.6.452c-.3,1.188.033,1.657,1.238,1.673,1.021.017,1.1.1,1.1,1.1v7.43c0,1.556,0,1.523,1.59,1.523.686,0,.937-.268.92-.937C422.079,385.1,422.1,383.745,422.1,382.373Z" transform="translate(-283.053 -309.706)" fill="#fff"/>
    <path id="Path_1998" data-name="Path 1998" d="M913.1,174.281c-1.506.017-3.012-.017-4.518.05-.837.033-1.037-.3-1.037-1.088.017-5.1,0-10.207,0-15.311a1.74,1.74,0,0,0-.167-.9c-.268,1.69-.519,3.38-.786,5.054q-.929,5.773-1.841,11.563a.649.649,0,0,1-.77.653c-.971-.017-1.958-.033-2.928,0-.636.033-.9-.234-.987-.837-.335-2.293-.686-4.568-1.038-6.861q-.7-4.543-1.422-9.086c-.017-.1-.067-.2-.134-.418a5.73,5.73,0,0,0-.217,1.857v13.973c0,1.355,0,1.355-1.389,1.355-1.037,0-2.058-.033-3.1.017-.736.033-.971-.251-.971-.971.034-3.347.017-6.693.017-10.04V146.971c0-1.155.017-1.171,1.155-1.171,1.724,0,3.464.017,5.187,0,.586,0,.82.234.92.8,1.054,6.074,2.142,12.132,3.213,18.189a2.654,2.654,0,0,0,.184.3c.151-.686.268-1.222.368-1.774.954-5.371,1.908-10.76,2.861-16.131.251-1.389.268-1.389,1.707-1.389,1.891,0,3.8.017,5.689.017Z" transform="translate(-742.6 -121.359)" fill="#fff"/>
    <path id="Path_1999" data-name="Path 1999" d="M28.484,157.48c0,3.23-.017,6.476.017,9.705,0,.7-.218.971-.954,1a15.825,15.825,0,0,0-1.255,31.493c5.572.686,10.475-.954,14.157-5.355a7.17,7.17,0,0,0,.92-8.1,7.482,7.482,0,0,0-6.777-4.551,7.833,7.833,0,0,0-5.522,1.757c-.134.117-.284.318-.5.2-.218-.1-.151-.351-.151-.535,0-2.46.017-4.9-.017-7.363,0-.8.485-.8,1.054-.8H47.192c.452,0,.887.017,1.339,0,.569-.034.82.234.8.786-.017.954,0,1.891,0,2.845,0,4.936-.017,9.873.017,14.809a2.2,2.2,0,0,1-.7,1.69,27.981,27.981,0,0,1-21.921,8.3A27.526,27.526,0,0,1,9.541,196.2,26.919,26.919,0,0,1,.689,181.342a27.511,27.511,0,0,1,5.974-24.431,27.925,27.925,0,0,1,19.7-10.107c2.544-.234,2.108-.218,2.125,1.908C28.5,151.64,28.484,154.568,28.484,157.48Z" transform="translate(0 -122.112)" fill="#fff"/>
    <path id="Path_2000" data-name="Path 2000" d="M201.874,26.085a46.051,46.051,0,0,1-7.43,24.364c-.586.9-.686.9-1.305.033a42.326,42.326,0,0,1-6.007-13.454,43.735,43.735,0,0,1-1.406-12.5,43.716,43.716,0,0,1,4.083-17.7A56.226,56.226,0,0,1,193.223.6c.469-.753.519-.736.971-.033a44.38,44.38,0,0,1,5.957,13.019A51.58,51.58,0,0,1,201.874,26.085Zm-2.661,7.179a42.4,42.4,0,0,0,.3-11.462,45.144,45.144,0,0,0-5.388-16.934c-.3-.569-.5-.669-.853-.033-.82,1.523-1.473,3.129-2.142,4.719a43.959,43.959,0,0,0-2.912,23.728c.134-2.075.234-4.167.535-6.225a48.232,48.232,0,0,1,4.234-13.671c.167-.335.284-.837.686-.87.469-.033.485.535.7.837a3.129,3.129,0,0,1,.335.669A46.36,46.36,0,0,1,199.213,33.264Zm-5.489-2.008c-3.062,5.321-2.728,13.019-.017,17.754C196.486,45.63,196.5,34.937,193.725,31.256Z" transform="translate(-154.665 0.012)" fill="#fff"/>
    <path id="Path_2001" data-name="Path 2001" d="M796.879,160.036c0-3.263-.017-6.526.017-9.789a3.839,3.839,0,0,1,4.066-4.434c1.556-.05,3.129-.05,4.685,0a3.575,3.575,0,0,1,3.8,3.28,11.317,11.317,0,0,1,.2,1.991v17.9a8.888,8.888,0,0,1-.385,2.728,3.3,3.3,0,0,1-3.313,2.56c-1.791.05-3.564.05-5.355,0a3.449,3.449,0,0,1-3.564-3.112,14.56,14.56,0,0,1-.134-2.828c-.017-2.778-.017-5.539-.017-8.3Zm5.221.084V168.9a4.61,4.61,0,0,0,.033.837,1.016,1.016,0,0,0,1.037.9.98.98,0,0,0,1.054-.971c.017-.251.017-.5.017-.753V151.268a4.666,4.666,0,0,0-.033-.837,1.019,1.019,0,0,0-1.406-.87c-.669.218-.736.753-.736,1.339C802.117,154,802.117,157.058,802.1,160.12Z" transform="translate(-663.56 -121.338)" fill="#fff"/>
    <path id="Path_2002" data-name="Path 2002" d="M602.733,160.157V147.021c0-1.088.033-1.121,1.138-1.121h10.542c1.021,0,1.071.05,1.071,1.1v26.255c0,1.1-.033,1.138-1.121,1.138h-3.012c-1.021,0-1.071-.033-1.071-1.1V150.97c0-1.456-.552-1.857-2.008-1.473a.522.522,0,0,0-.435.535c-.017.284-.017.552-.017.837v22.323c0,1.2,0,1.2-1.2,1.2-.954,0-1.891-.033-2.845.017-.8.05-1.071-.234-1.071-1.054C602.75,168.959,602.733,164.558,602.733,160.157Z" transform="translate(-501.877 -121.442)" fill="#fff"/>
    <path id="Path_2003" data-name="Path 2003" d="M414.251,145.886c1.171,0,2.343.017,3.514,0,.636-.017.87.268.92.887.586,6.074,1.2,12.149,1.807,18.206.284,2.861.535,5.706.837,8.568.05.569-.1.837-.7.82-1.305-.017-2.627-.017-3.932,0-.485,0-.7-.184-.736-.686-.084-1.272-.2-2.56-.284-3.832-.033-.5-.017-1-.05-1.506-.084-1.422-.92-1.958-2.259-1.473-.385.134-.368.452-.385.753-.151,1.941-.318,3.882-.435,5.84-.033.686-.268.937-.954.92-1.222-.033-2.46-.033-3.681,0-.636.017-.837-.251-.77-.853q.7-6.9,1.389-13.805c.435-4.267.87-8.534,1.255-12.8.067-.8.351-1.071,1.138-1.038C412.009,145.92,413.13,145.886,414.251,145.886Zm.033,4.066h-.1c-.151,1.908-.318,3.815-.435,5.723-.151,2.376-.268,4.769-.418,7.162-.05.736.385.786.954.8.569,0,.92-.134.87-.786-.067-1-.117-1.991-.184-3C414.736,156.546,414.519,153.249,414.284,149.953Z" transform="translate(-339.03 -121.429)" fill="#fff"/>
    <path id="Path_2004" data-name="Path 2004" d="M515.351,159.258c.1.084.134.151.184.151,2.226.234,3.062,1.59,3.079,3.832a51.275,51.275,0,0,1-.134,7.346c-.335,2.393-1.59,3.464-4,3.5q-2.008.025-4.016,0c-3.1-.017-4.351-1.121-4.552-4.2-.117-1.69-.017-3.4-.033-5.1,0-.535.251-.753.77-.753h4.016c.569,0,.786.284.786.837-.017,1.422,0,2.845,0,4.267,0,.569.1,1.155.786,1.155.736.017.837-.586.837-1.188,0-2.092.017-4.183,0-6.275a1.561,1.561,0,0,0-1.606-1.757,16.088,16.088,0,0,0-2.008-.033c-.519,0-.753-.218-.753-.753.034-2.945-.351-2.426,2.209-2.477,1.74-.033,2.159-.452,2.159-2.209v-5.187c0-.569-.067-1.1-.8-1.1-.736-.017-.82.535-.82,1.1,0,1.138-.017,2.293,0,3.43.017.669-.217.971-.92.954-1.288-.033-2.56-.017-3.849,0-.552,0-.82-.218-.8-.8a43.9,43.9,0,0,1,.134-4.92c.284-2.058,1.255-3.179,3.28-3.38a26.1,26.1,0,0,1,6.258.05,3.113,3.113,0,0,1,2.728,2.393,8.282,8.282,0,0,1,.351,2.393c0,1.473.017,2.962,0,4.434C518.614,157.484,517.811,158.538,515.351,159.258Z" transform="translate(-421.238 -121.129)" fill="#fff"/>
    <path id="Path_2005" data-name="Path 2005" d="M702.1,160.224V147.188c0-1.171.017-1.188,1.155-1.188h7.2c3,.017,4.635,1.523,4.719,4.552.084,3.263.084,6.526,0,9.772-.084,3.062-1.757,4.552-4.819,4.485-.552-.017-1.121.033-1.673.033-.753,0-1.054.318-1.037,1.121.05,2.477.017,4.953.017,7.446,0,1.054-.05,1.088-1.071,1.088-1.138,0-2.292-.05-3.43.017-.82.033-1.054-.284-1.054-1.071C702.117,169.025,702.1,164.624,702.1,160.224Zm5.556-4.6c0,1.707.017,3.4,0,5.1,0,.6.2.853.82.853,1.121,0,1.439-.3,1.456-1.523q.025-4.393,0-8.785a2.749,2.749,0,0,0-.134-.9c-.3-.8-1-.686-1.64-.636-.636.033-.5.569-.5.971Z" transform="translate(-584.644 -121.525)" fill="#fff"/>
    <path id="Path_2006" data-name="Path 2006" d="M339.9,160.074V146.938c0-1.088.033-1.121,1.138-1.121,2.761,0,5.522.017,8.283-.017.736,0,1.037.218,1.037,1,0,2.577.033,2.577-2.527,2.577-.535,0-1.054.017-1.59,0-.586-.033-.8.234-.786.8.017.971,0,1.958,0,2.928v20c0,1.188-.017,1.2-1.222,1.2h-3.263c-1.021,0-1.071-.033-1.071-1.1Z" transform="translate(-283.053 -121.359)" fill="#fff"/>
    <path id="Path_2007" data-name="Path 2007" d="M687.163,412.142V410.05c0-.368.034-.77.552-.753.452.017.853.167.887.7.05.753.067,1.506.067,2.242,0,.669-.017,1.339-.05,1.991-.033.5-.251.853-.82.853-.6,0-.636-.435-.636-.87C687.146,413.531,687.163,412.845,687.163,412.142Z" transform="translate(-572.2 -340.764)" fill="#fff"/>
    <path id="Path_2008" data-name="Path 2008" d="M664.289,412.275v2.092c0,.351.05.77-.485.8a.741.741,0,0,1-.87-.786c-.034-.8-.034-1.606-.034-2.426,0-.586,0-1.171.034-1.757a.781.781,0,0,1,.87-.8c.619,0,.468.519.468.87C664.306,410.936,664.289,411.605,664.289,412.275Z" transform="translate(-552.003 -340.846)" fill="#fff"/>
    <path id="Path_2009" data-name="Path 2009" d="M963.723,433.64a7.709,7.709,0,0,1-.1,1.054c-.134.552-.586.6-1.054.586-.5-.017-.569-.351-.569-.753v-1.841c0-.435.067-.786.619-.786.485,0,.92.084,1.021.636A7.743,7.743,0,0,1,963.723,433.64Z" transform="translate(-801.053 -359.584)" fill="#fff"/>
  </g>
</svg>
