<svg id="Group_810" data-name="Group 810" xmlns="http://www.w3.org/2000/svg" xmlns:xlink="http://www.w3.org/1999/xlink" width="141.527" height="100.073" viewBox="0 0 141.527 100.073">
  <defs>
    <clipPath id="clip-path">
      <rect id="Rectangle_1319" data-name="Rectangle 1319" width="141.527" height="100.073" fill="#00b259"/>
    </clipPath>
  </defs>
  <g id="Group_786" data-name="Group 786" clip-path="url(#clip-path)">
    <path id="Path_1931" data-name="Path 1931" d="M68.5,440.261c-.1-.185-.219-.37-.353-.572s-.269-.4-.4-.622c-.134-.2-.286-.4-.437-.605s-.286-.37-.42-.521v2.32H66.3V437h.488c.118.134.252.286.4.471s.286.37.437.555c.151.2.286.387.42.588s.252.37.37.538V437h.588v3.244h-.5Z" transform="translate(-55.155 -363.538)" fill="#00b259"/>
  </g>
  <g id="Group_787" data-name="Group 787" clip-path="url(#clip-path)">
    <path id="Path_1932" data-name="Path 1932" d="M109.257,438.464a2,2,0,0,1-.134.74,1.469,1.469,0,0,1-.37.521,1.626,1.626,0,0,1-.588.3,2.578,2.578,0,0,1-.756.1,4.426,4.426,0,0,1-.908-.084v-3.16a3.969,3.969,0,0,1,.471-.067,4.416,4.416,0,0,1,.454-.017,2.54,2.54,0,0,1,.74.1,1.55,1.55,0,0,1,.572.3,1.183,1.183,0,0,1,.37.521,1.458,1.458,0,0,1,.151.74m-2.152,1.143h.37a1.191,1.191,0,0,0,.891-.3,1.137,1.137,0,0,0,.286-.841,1.034,1.034,0,0,0-1.177-1.143,2.057,2.057,0,0,0-.37.017Z" transform="translate(-88.597 -363.372)" fill="#00b259"/>
  </g>
  <g id="Group_788" data-name="Group 788" clip-path="url(#clip-path)">
    <path id="Path_1933" data-name="Path 1933" d="M147.478,440.328a1.449,1.449,0,0,1-.572-.1,1.305,1.305,0,0,1-.4-.269,1.213,1.213,0,0,1-.235-.4,1.7,1.7,0,0,1-.067-.521V437h.588v1.967a1.155,1.155,0,0,0,.05.37.891.891,0,0,0,.134.252.639.639,0,0,0,.219.151.723.723,0,0,0,.286.051.784.784,0,0,0,.286-.051.639.639,0,0,0,.219-.151.606.606,0,0,0,.134-.252,1.229,1.229,0,0,0,.05-.37V437h.588v2.034a1.779,1.779,0,0,1-.084.521,1.213,1.213,0,0,1-.235.4,1,1,0,0,1-.4.269,1.364,1.364,0,0,1-.555.1" transform="translate(-121.623 -363.538)" fill="#00b259"/>
  </g>
  <g id="Group_789" data-name="Group 789" clip-path="url(#clip-path)">
    <path id="Path_1934" data-name="Path 1934" d="M185.025,439.475a.85.85,0,0,0,.471-.1.339.339,0,0,0,.151-.3.359.359,0,0,0-.05-.2,1.084,1.084,0,0,0-.134-.151,2.475,2.475,0,0,0-.219-.134,2.853,2.853,0,0,0-.3-.118,1.819,1.819,0,0,1-.319-.135.767.767,0,0,1-.269-.185.55.55,0,0,1-.185-.252.78.78,0,0,1-.067-.353.857.857,0,0,1,.3-.689,1.268,1.268,0,0,1,.824-.252,1.744,1.744,0,0,1,.538.067,2.059,2.059,0,0,1,.37.151l-.185.471a1.1,1.1,0,0,0-.353-.135,1.527,1.527,0,0,0-.387-.05.6.6,0,0,0-.37.1.327.327,0,0,0-.134.269.339.339,0,0,0,.05.185.344.344,0,0,0,.134.134,1.759,1.759,0,0,0,.185.118c.067.034.151.067.235.1.151.05.286.118.4.168a1.358,1.358,0,0,1,.3.2.649.649,0,0,1,.185.286.886.886,0,0,1,.067.387.823.823,0,0,1-.319.689,1.4,1.4,0,0,1-.908.235,2.527,2.527,0,0,1-.37-.034,1.6,1.6,0,0,1-.3-.067.66.66,0,0,1-.219-.084c-.067-.034-.118-.05-.151-.067l.168-.487a1.27,1.27,0,0,0,.336.135,1.035,1.035,0,0,0,.521.1" transform="translate(-153.069 -363.205)" fill="#00b259"/>
  </g>
  <g id="Group_790" data-name="Group 790" clip-path="url(#clip-path)">
    <path id="Path_1935" data-name="Path 1935" d="M220.606,437v.521H219.6v2.74h-.588v-2.74H218V437Z" transform="translate(-181.353 -363.538)" fill="#00b259"/>
  </g>
  <g id="Group_791" data-name="Group 791" clip-path="url(#clip-path)">
    <path id="Path_1936" data-name="Path 1936" d="M256.674,436.8a1.921,1.921,0,0,1,1.076.252.971.971,0,0,1-.286,1.681,1.242,1.242,0,0,1,.2.269c.067.1.151.219.235.336a2.677,2.677,0,0,1,.219.37c.067.134.134.252.185.37h-.656c-.067-.118-.118-.219-.185-.336s-.135-.219-.2-.336l-.2-.3c-.067-.1-.134-.185-.185-.252h-.487v1.227H255.8v-3.194a4.23,4.23,0,0,1,.454-.067c.134,0,.286-.017.42-.017m.034.521a2.483,2.483,0,0,0-.353.017v1.042h.252a2.732,2.732,0,0,0,.387-.017,1.012,1.012,0,0,0,.269-.084.4.4,0,0,0,.168-.168.589.589,0,0,0,.05-.269.561.561,0,0,0-.05-.252.4.4,0,0,0-.168-.168.885.885,0,0,0-.252-.084,1.634,1.634,0,0,0-.3-.017" transform="translate(-212.799 -363.372)" fill="#00b259"/>
  </g>
  <g id="Group_792" data-name="Group 792" clip-path="url(#clip-path)">
    <rect id="Rectangle_1325" data-name="Rectangle 1325" width="0.588" height="3.244" transform="translate(49.255 73.462)" fill="#00b259"/>
  </g>
  <g id="Group_793" data-name="Group 793" clip-path="url(#clip-path)">
    <path id="Path_1937" data-name="Path 1937" d="M320.938,440.178c-.05-.135-.084-.252-.135-.387-.05-.118-.084-.252-.134-.387h-1.378c-.05.134-.084.252-.134.387s-.084.252-.135.37H318.4q.176-.53.353-.958c.1-.286.219-.572.319-.841s.2-.5.319-.756c.1-.235.2-.471.319-.706h.572c.118.235.219.471.319.706s.2.488.319.756c.1.269.219.538.319.841.118.286.235.622.353.958h-.656Zm-.958-2.622q-.1.252-.252.605c-.084.235-.185.488-.286.773h1.076c-.1-.286-.2-.538-.286-.773q-.151-.378-.252-.605" transform="translate(-264.875 -363.455)" fill="#00b259"/>
  </g>
  <g id="Group_794" data-name="Group 794" clip-path="url(#clip-path)">
    <path id="Path_1938" data-name="Path 1938" d="M361.268,439.74v.521H359.2V437h.605v2.74Z" transform="translate(-298.817 -363.538)" fill="#00b259"/>
  </g>
  <g id="Group_795" data-name="Group 795" clip-path="url(#clip-path)">
    <path id="Path_1939" data-name="Path 1939" d="M418.5,439.054a.978.978,0,0,1,.05-.319.851.851,0,0,1,.151-.269.822.822,0,0,1,.219-.2,1,1,0,0,1,.252-.151,1.424,1.424,0,0,1-.235-.319.9.9,0,0,1-.084-.353.836.836,0,0,1,.235-.622.9.9,0,0,1,.639-.219,1.116,1.116,0,0,1,.353.05.633.633,0,0,1,.252.151.707.707,0,0,1,.151.235.836.836,0,0,1,0,.572,1.074,1.074,0,0,1-.135.235,1.143,1.143,0,0,1-.2.2,1.193,1.193,0,0,1-.235.168l.639.639a.743.743,0,0,0,.1-.269,1.964,1.964,0,0,0,.067-.3l.471.067a2.5,2.5,0,0,1-.1.42,2.063,2.063,0,0,1-.2.437l.3.353a2.257,2.257,0,0,1,.235.37h-.588a1.016,1.016,0,0,0-.118-.168,1.51,1.51,0,0,0-.151-.168,1.963,1.963,0,0,1-.437.286,1.479,1.479,0,0,1-.555.1,1.536,1.536,0,0,1-.521-.084.972.972,0,0,1-.336-.219.759.759,0,0,1-.185-.286c0-.118-.034-.235-.034-.336m.555-.034a.744.744,0,0,0,.034.168.4.4,0,0,0,.1.151.5.5,0,0,0,.185.118.639.639,0,0,0,.269.05.986.986,0,0,0,.387-.067.7.7,0,0,0,.286-.185l-.824-.84a.682.682,0,0,0-.151.084.958.958,0,0,0-.134.118,1.474,1.474,0,0,0-.1.168.594.594,0,0,0-.05.235m1.009-1.664a.4.4,0,0,0-.084-.235.342.342,0,0,0-.252-.1.355.355,0,0,0-.269.1.381.381,0,0,0-.1.269.533.533,0,0,0,.067.269,1.323,1.323,0,0,0,.2.252,1.477,1.477,0,0,0,.168-.1.512.512,0,0,0,.134-.134l.1-.151a.252.252,0,0,0,.034-.168" transform="translate(-348.148 -363.205)" fill="#00b259"/>
  </g>
  <g id="Group_796" data-name="Group 796" clip-path="url(#clip-path)">
    <path id="Path_1940" data-name="Path 1940" d="M484.507,436.917c.067.118.151.269.235.437s.168.353.252.538.168.387.252.572c.084.2.168.37.235.538.067-.168.151-.353.235-.538.084-.2.168-.387.252-.572s.168-.37.252-.538.168-.319.235-.437h.538c.034.235.05.487.084.756.017.269.05.538.067.824s.034.555.05.84.034.555.05.824h-.588c-.017-.37-.034-.773-.05-1.16s-.05-.79-.084-1.16c-.034.067-.067.151-.118.252s-.1.2-.151.319-.1.235-.168.37c-.05.118-.1.252-.151.37s-.1.219-.151.336c-.05.1-.084.185-.118.252h-.4c-.034-.067-.067-.151-.118-.269-.05-.1-.084-.219-.134-.336s-.1-.235-.151-.37a2.265,2.265,0,0,0-.168-.353c-.05-.118-.1-.219-.151-.319s-.084-.185-.118-.252c-.034.37-.067.756-.084,1.16s-.034.79-.05,1.16H483.7c.017-.269.034-.555.05-.841s.034-.572.05-.857.05-.555.067-.824.05-.5.084-.74h.555Z" transform="translate(-402.388 -363.455)" fill="#00b259"/>
  </g>
  <g id="Group_797" data-name="Group 797" clip-path="url(#clip-path)">
    <path id="Path_1941" data-name="Path 1941" d="M530.844,438.3a2.012,2.012,0,0,1-.118.74,1.725,1.725,0,0,1-.336.538,1.3,1.3,0,0,1-.5.319,1.866,1.866,0,0,1-1.21,0,1.6,1.6,0,0,1-.5-.319,1.55,1.55,0,0,1-.336-.538,2.1,2.1,0,0,1,0-1.479,1.724,1.724,0,0,1,.336-.538,1.349,1.349,0,0,1,.5-.319,1.865,1.865,0,0,1,1.21,0,1.6,1.6,0,0,1,.5.319,1.724,1.724,0,0,1,.336.538,2.436,2.436,0,0,1,.118.74m-2.538,0a1.486,1.486,0,0,0,.067.488,1.088,1.088,0,0,0,.185.37.821.821,0,0,0,.3.235,1.01,1.01,0,0,0,.807,0,.82.82,0,0,0,.3-.235.853.853,0,0,0,.185-.37,1.8,1.8,0,0,0,0-.975,1.087,1.087,0,0,0-.185-.37.82.82,0,0,0-.3-.235,1.011,1.011,0,0,0-.807,0,.82.82,0,0,0-.3.235.852.852,0,0,0-.185.37,1.486,1.486,0,0,0-.067.487" transform="translate(-438.991 -363.205)" fill="#00b259"/>
  </g>
  <g id="Group_798" data-name="Group 798" clip-path="url(#clip-path)">
    <path id="Path_1942" data-name="Path 1942" d="M569.689,437v.521H568.7v2.74h-.589v-2.74H567.1V437Z" transform="translate(-471.768 -363.538)" fill="#00b259"/>
  </g>
  <g id="Group_799" data-name="Group 799" clip-path="url(#clip-path)">
    <path id="Path_1943" data-name="Path 1943" d="M606.444,438.3a2.009,2.009,0,0,1-.118.74,1.722,1.722,0,0,1-.336.538,1.3,1.3,0,0,1-.5.319,1.866,1.866,0,0,1-1.21,0,1.6,1.6,0,0,1-.5-.319,1.547,1.547,0,0,1-.336-.538,2.1,2.1,0,0,1,0-1.479,1.721,1.721,0,0,1,.336-.538,1.35,1.35,0,0,1,.5-.319,1.865,1.865,0,0,1,1.21,0,1.6,1.6,0,0,1,.5.319,1.721,1.721,0,0,1,.336.538,2.009,2.009,0,0,1,.118.74m-2.538,0a1.488,1.488,0,0,0,.067.488,1.093,1.093,0,0,0,.185.37.822.822,0,0,0,.3.235,1.01,1.01,0,0,0,.807,0,.822.822,0,0,0,.3-.235.852.852,0,0,0,.185-.37,1.8,1.8,0,0,0,0-.975,1.088,1.088,0,0,0-.185-.37.822.822,0,0,0-.3-.235,1.011,1.011,0,0,0-.807,0,.822.822,0,0,0-.3.235.855.855,0,0,0-.185.37,2.136,2.136,0,0,0-.067.487" transform="translate(-501.882 -363.205)" fill="#00b259"/>
  </g>
  <g id="Group_800" data-name="Group 800" clip-path="url(#clip-path)">
    <path id="Path_1944" data-name="Path 1944" d="M646.374,436.8a1.921,1.921,0,0,1,1.076.252.971.971,0,0,1-.286,1.681,1.238,1.238,0,0,1,.2.269c.067.1.151.219.235.336a2.689,2.689,0,0,1,.219.37c.067.134.135.252.185.37h-.656c-.067-.118-.118-.219-.185-.336s-.134-.219-.2-.336l-.2-.3c-.067-.1-.134-.185-.185-.252h-.488v1.227H645.5v-3.194a4.228,4.228,0,0,1,.454-.067c.151,0,.286-.017.42-.017m.034.521a2.482,2.482,0,0,0-.353.017v1.042h.252a2.732,2.732,0,0,0,.387-.017.843.843,0,0,0,.269-.084.4.4,0,0,0,.168-.168.589.589,0,0,0,.05-.269.561.561,0,0,0-.05-.252.4.4,0,0,0-.168-.168.884.884,0,0,0-.252-.084,1.545,1.545,0,0,0-.3-.017" transform="translate(-536.988 -363.372)" fill="#00b259"/>
  </g>
  <g id="Group_801" data-name="Group 801" clip-path="url(#clip-path)">
    <path id="Path_1945" data-name="Path 1945" d="M711.144,438.3a2.011,2.011,0,0,1-.118.74,1.723,1.723,0,0,1-.336.538,1.3,1.3,0,0,1-.5.319,1.866,1.866,0,0,1-1.21,0,1.6,1.6,0,0,1-.5-.319,1.547,1.547,0,0,1-.336-.538,2.1,2.1,0,0,1,0-1.479,1.721,1.721,0,0,1,.336-.538,1.349,1.349,0,0,1,.5-.319,1.864,1.864,0,0,1,1.21,0,1.6,1.6,0,0,1,.5.319,1.722,1.722,0,0,1,.336.538,2.437,2.437,0,0,1,.118.74m-2.538,0a1.485,1.485,0,0,0,.067.488,1.089,1.089,0,0,0,.185.37.821.821,0,0,0,.3.235,1.01,1.01,0,0,0,.807,0,.822.822,0,0,0,.3-.235.854.854,0,0,0,.185-.37,1.8,1.8,0,0,0,0-.975,1.09,1.09,0,0,0-.185-.37.822.822,0,0,0-.3-.235,1.011,1.011,0,0,0-.807,0,.82.82,0,0,0-.3.235.853.853,0,0,0-.185.37,1.485,1.485,0,0,0-.067.487" transform="translate(-588.982 -363.205)" fill="#00b259"/>
  </g>
  <g id="Group_802" data-name="Group 802" clip-path="url(#clip-path)">
    <rect id="Rectangle_1336" data-name="Rectangle 1336" width="0.588" height="3.244" transform="translate(126.095 73.462)" fill="#00b259"/>
  </g>
  <g id="Group_803" data-name="Group 803" clip-path="url(#clip-path)">
    <path id="Path_1946" data-name="Path 1946" d="M779.751,439.74v.521H777.7V437h.588v2.74Z" transform="translate(-646.965 -363.538)" fill="#00b259"/>
  </g>
  <g id="Group_804" data-name="Group 804" clip-path="url(#clip-path)">
    <path id="Path_1947" data-name="Path 1947" d="M346.255,164.525l1.11-6.338,1.093-6.287h9.481l-1.093,6.287H361l-1.109,6.338h-4.152l-3.345,19.08a5.821,5.821,0,0,0-.084,2.5c.168.454.756.672,1.8.672h2.959l-1.109,6.338h-8.842c-2.236,0-3.682-.605-4.3-1.8s-.74-3.026-.3-5.463Z" transform="translate(-284.712 -126.365)" fill="#00b259"/>
  </g>
  <g id="Group_805" data-name="Group 805" clip-path="url(#clip-path)">
    <path id="Path_1948" data-name="Path 1948" d="M583.115,196.617,580.19,213.26a10.078,10.078,0,0,1-4.656,7.077,15.418,15.418,0,0,1-8.439,2.2c-3.278,0-5.816-.74-7.6-2.2q-3.051-2.5-2.236-7.077l2.925-16.642a11.128,11.128,0,0,1,4.219-7.262c2.253-1.715,5.262-2.555,8.977-2.555q5.522,0,8.052,2.538c1.681,1.664,2.236,4.1,1.681,7.279m-13.263-1.042-3.194,18.172a2.879,2.879,0,0,0,.151,1.732,1.392,1.392,0,0,0,1.412.706,2,2,0,0,0,1.648-.672,3.537,3.537,0,0,0,.756-1.765l3.194-18.172a2.879,2.879,0,0,0-.151-1.731,1.392,1.392,0,0,0-1.412-.706,2,2,0,0,0-1.648.672,3.553,3.553,0,0,0-.756,1.765" transform="translate(-463.441 -155.398)" fill="#00b259"/>
  </g>
  <g id="Group_806" data-name="Group 806" clip-path="url(#clip-path)">
    <path id="Path_1949" data-name="Path 1949" d="M454.868,186.617a14.55,14.55,0,0,0-8.977,2.555,11.088,11.088,0,0,0-4.219,7.262l-1.025,5.884L437.2,221.986h9.5l3.446-19.668h0l.857-4.909c.05-.235.1-.471.168-.689h-.05l.235-1.328a3.709,3.709,0,0,1,.756-1.765,2.025,2.025,0,0,1,1.647-.672h5.279l1.109-6.354c-5.161.034-5.211.017-5.278.017" transform="translate(-363.705 -155.232)" fill="#00b259"/>
  </g>
  <g id="Group_807" data-name="Group 807" clip-path="url(#clip-path)">
    <path id="Path_1950" data-name="Path 1950" d="M710.881,181.989H701.4l7.615-43.489H718.5Z" transform="translate(-583.492 -115.218)" fill="#00b259"/>
  </g>
  <g id="Group_808" data-name="Group 808" clip-path="url(#clip-path)">
    <path id="Path_1951" data-name="Path 1951" d="M215.922,188.868c-1.681-1.378-4.219-2.068-7.632-2.068a14.55,14.55,0,0,0-8.977,2.555,11.088,11.088,0,0,0-4.219,7.262l-2.925,16.642c-.538,3.043.219,5.413,2.236,7.077,1.782,1.462,4.32,2.185,7.6,2.2h9.515l1.11-6.338h-9.515c-1.311,0-1.782-1.126-1.378-3.345l.572-3.228h13.448l2.269-12.994c.639-3.513-.084-6.1-2.1-7.766m-7.128,6.338-1.513,8.59h-3.967l1.513-8.59a2.186,2.186,0,0,1,2.337-2.068c1.345,0,1.883.689,1.631,2.068" transform="translate(-159.725 -155.398)" fill="#00b259"/>
  </g>
  <g id="Group_809" data-name="Group 809" clip-path="url(#clip-path)">
    <path id="Path_1952" data-name="Path 1952" d="M61.339,138.5l-5.766,32.932a10.751,10.751,0,0,1-.807,2.925,2.668,2.668,0,0,1-2.522,1.462H44.31l-1.21,6.96h8.086c4.757-.034,8.355-1.278,10.742-3.715a14.931,14.931,0,0,0,3.715-8.17l5.665-32.377H61.339Z" transform="translate(-35.855 -115.218)" fill="#00b259"/>
  </g>
</svg>
