<svg xmlns="http://www.w3.org/2000/svg" width="239.319" height="87.647" viewBox="0 0 239.319 87.647">
  <g id="Group_881" data-name="Group 881" transform="translate(368.051 -149.933)">
    <rect id="Rectangle_1401" data-name="Rectangle 1401" width="184.132" height="22.12" transform="translate(-312.865 215.385)" fill="#fed200"/>
    <path id="Path_2103" data-name="Path 2103" d="M-335.853,237.565c5.236,0,10.472-.014,15.708.015.829,0,1.068-.2,1.062-1.086-.049-7.794-.033-15.588-.042-23.382a2.133,2.133,0,0,1,.689-1.632c2.983-2.951,5.9-5.966,8.9-8.9a43.776,43.776,0,0,1,4.9-4.666,2.449,2.449,0,0,0,.95-2.136q-.044-10.985-.007-21.97c0-.725-.249-.9-.912-.892-1.941.033-3.883,0-5.824.032-.628.009-.869-.152-.849-.85.055-1.94-.019-3.882.028-5.823.02-.843-.34-1.068-1.1-1.057-1.941.027-3.883-.015-5.824.029-.664.015-.865-.2-.852-.847.037-1.911-.005-3.824.035-5.735.015-.7-.149-1-.92-.976-1.94.049-3.883-.036-5.821.035-.847.031-1.023-.269-1.006-1.032.043-2,.005-4,.029-6,.007-.553-.149-.762-.746-.759q-8.383.033-16.767,0c-.754,0-.86.3-.849.936.034,1.941-.013,3.883.032,5.823.017.761-.148,1.072-1,1.04-1.939-.073-3.883,0-5.823-.044-.726-.018-.971.189-.953.932.048,1.97.017,3.941.025,5.912,0,.446-.015.81-.633.8-1.964-.019-3.937.1-5.891-.047-.933-.07-1.052.192-1.044.962.02,1.911-.064,3.824,0,5.733.03.85-.3.978-1.019.965-1.941-.036-3.883,0-5.824-.031-.63-.011-.89.153-.848.837.063,1.025.026,2.057.027,3.087.006,6.412.022,12.824,0,19.236,0,.717.15,1.345.78,1.608a4.845,4.845,0,0,1,1.292,1.012c.993.858,1.771,1.915,2.686,2.845,1.487,1.51,3.063,2.94,4.528,4.46,1.723,1.787,3.5,3.526,5.222,5.314a2.713,2.713,0,0,1,.88,2c0,7.765.027,15.53-.014,23.294,0,.849.288.971.995.969C-346.384,237.559-341.119,237.567-335.853,237.565Z" transform="translate(0 0)" fill="#fed200"/>
    <path id="Path_2104" data-name="Path 2104" d="M-335.853,237.566c-5.265,0-10.531-.007-15.8.01-.707,0-1-.12-.995-.969.041-7.765.018-15.529.014-23.294a2.713,2.713,0,0,0-.88-2c-1.723-1.788-3.5-3.527-5.222-5.314-1.465-1.519-3.041-2.949-4.528-4.46-.915-.929-1.694-1.987-2.686-2.845a4.845,4.845,0,0,0-1.292-1.012c-.63-.263-.783-.891-.78-1.608.022-6.412.006-12.824,0-19.236,0-1.029.036-2.061-.027-3.087-.042-.684.218-.848.848-.837,1.941.033,3.883-.006,5.824.031.718.014,1.049-.114,1.019-.965-.067-1.909.017-3.822,0-5.733-.008-.77.111-1.032,1.044-.962,1.953.147,3.926.027,5.891.047.618.006.635-.358.633-.8-.008-1.971.023-3.942-.025-5.912-.018-.744.227-.95.953-.932,1.94.048,3.884-.029,5.823.044.855.032,1.02-.28,1-1.04-.044-1.94,0-3.882-.032-5.823-.011-.638.095-.94.849-.936q8.383.046,16.767,0c.6,0,.753.206.746.759-.023,2,.015,4-.029,6-.017.763.159,1.063,1.006,1.032,1.938-.071,3.882.014,5.821-.035.771-.019.934.281.92.976-.04,1.911,0,3.824-.035,5.735-.013.65.188.862.852.847,1.94-.043,3.883,0,5.824-.029.761-.011,1.121.214,1.1,1.057-.047,1.94.027,3.883-.028,5.823-.02.7.221.86.849.85,1.941-.029,3.883,0,5.824-.032.662-.011.914.166.912.892q-.037,10.985.007,21.97a2.449,2.449,0,0,1-.95,2.136,43.776,43.776,0,0,0-4.9,4.666c-3,2.932-5.92,5.948-8.9,8.9a2.133,2.133,0,0,0-.689,1.632c.008,7.794-.007,15.588.042,23.382.005.883-.233,1.09-1.062,1.086C-325.381,237.551-330.617,237.565-335.853,237.566ZM-339.09,211.3c0,6.469.013,12.938-.018,19.407,0,.7.175.925.87.906,1.528-.04,3.06-.057,4.587.007.84.035,1.006-.275,1-1.056q-.037-19.318-.008-38.637c0-.8-.316-1.028-1.045-1.015-1.411.026-2.823.005-4.235.008-1.091,0-1.156.07-1.156,1.149Q-339.09,201.681-339.09,211.3Zm-.092-38.478c0,5.351.012,10.7-.015,16.053,0,.682.16.913.873.89,1.674-.055,3.352-.04,5.028-.01.545.01.7-.166.7-.7q-.023-16.274,0-32.547c0-.606-.249-.66-.73-.655-1.646.018-3.295.044-4.94-.011-.738-.025-.931.2-.927.93C-339.166,162.116-339.181,167.467-339.182,172.818Zm-8.792,35.687V203.1q0-15.441.018-30.883c0-.776-.183-1-.973-.971-1.615.069-3.235.043-4.853.008-.539-.012-.7.134-.7.683q.022,14.824.008,29.647a1.075,1.075,0,0,0,.3.875C-352.127,204.437-350.1,206.432-347.974,208.505Zm7.667-27.929c0-5.38-.011-10.76.014-16.139,0-.64-.132-.866-.821-.844-1.674.054-3.351.029-5.027.005-.489-.007-.685.14-.667.651.032.91.007,1.822.007,2.734q0,14.772-.017,29.545c0,.784.207,1.009.98.979,1.556-.061,3.117-.064,4.673-.012.7.023.878-.171.874-.867C-340.322,191.277-340.309,185.926-340.307,180.576Zm15.36.009c0-5.383-.011-10.766.015-16.149,0-.651-.154-.861-.827-.841-1.646.049-3.295.036-4.942,0-.56-.012-.77.124-.769.727q.025,16.238,0,32.475c0,.544.154.7.7.691,1.647-.033,3.3-.049,4.941.011.761.028.9-.236.9-.942C-324.963,191.234-324.949,185.909-324.947,180.585Zm1.278,27.774a.932.932,0,0,0,.222-.119q2.929-2.932,5.857-5.865a1.128,1.128,0,0,0,.3-.88q-.005-14.775,0-29.55c0-.539-.148-.7-.694-.69-1.617.036-3.236.058-4.851-.007-.774-.031-.971.168-.969.959q.041,17.642.019,35.284A1.5,1.5,0,0,0-323.669,208.359Zm-23.157,6.711c0,5.207.017,10.414-.019,15.62-.005.776.327,1.025.977.969,1.527-.131,3.056-.058,4.582-.045.708.006.883-.221.881-.908q-.034-15.664-.007-31.328c0-.614-.228-.735-.775-.725-1.529.03-3.062.068-4.588-.007-.865-.043-1.078.227-1.072,1.069C-346.81,204.833-346.828,209.952-346.827,215.07Zm21.875.114h0c0-5.232-.012-10.463.015-15.695,0-.661-.175-.855-.839-.836-1.615.046-3.233.034-4.849,0-.58-.014-.751.162-.75.745q.016,15.694-.017,31.389c0,.686.241.84.869.826q2.291-.05,4.584.01c.745.019,1.014-.215,1.009-1.006C-324.968,225.471-324.951,220.327-324.951,215.184Zm-30.836-14.215a2.718,2.718,0,0,0,.136-.453q0-10.45.012-20.9c0-.524-.188-.639-.665-.633-1.675.022-3.352.037-5.027,0-.651-.016-.841.163-.834.834.035,3.7.192,7.418-.043,11.107a6.554,6.554,0,0,0,2.527,6.087A46.741,46.741,0,0,1-355.788,200.969Zm39.672-.3.238.112q3-3.042,6-6.081a1.016,1.016,0,0,0,.268-.8c0-4.761-.013-9.521.011-14.282,0-.576-.206-.68-.717-.673-1.645.026-3.293.043-4.937-.01-.691-.022-.886.16-.883.868.028,6.7.017,13.4.017,20.1Z" transform="translate(0 0)" fill="#fcfcfa"/>
    <path id="Path_2105" data-name="Path 2105" d="M597.106,542.351c1,0,2,.015,3,0a4.658,4.658,0,0,1,4.877,4.332c.385,3.791-1.6,6.034-5.409,6.023-1.97-.006-3.94.022-5.909-.019-.629-.013-.826.184-.784.8.044.643-.009,1.293,0,1.939.005.377-.162.523-.53.52-1.293-.009-2.587-.013-3.881,0-.384,0-.524-.144-.515-.518.015-.646-.039-1.3.014-1.939.05-.613-.139-.812-.77-.8-2.116.038-4.234,0-6.351.024a6.842,6.842,0,0,1-2.734-.51,3.96,3.96,0,0,1-2.08-2.329,6.242,6.242,0,0,1,.06-4.815,4.227,4.227,0,0,1,4.143-2.679c2.322-.039,4.646-.031,6.968,0,.628.009.791-.2.772-.8-.023-.723-.328-1.659.138-2.121s1.4-.108,2.124-.141c.558-.025,1.122.042,1.675-.017.748-.08,1.1.125.987.946-.065.461.015.941-.02,1.409-.04.534.153.727.7.711C594.753,542.327,595.93,542.35,597.106,542.351Zm-12.032,7.006v.006c.735,0,1.471-.028,2.2.009.554.028.717-.191.688-.718a18.815,18.815,0,0,1,0-2.115c.033-.558-.19-.7-.713-.69-1.47.026-2.94-.01-4.41.007a1.486,1.486,0,0,0-1.613,1.672c-.024,1.152.479,1.769,1.548,1.823C583.543,549.387,584.309,549.357,585.074,549.357Zm10.549.015v-.021c.823,0,1.65.049,2.468-.013a1.6,1.6,0,0,0,1.514-1.8,1.534,1.534,0,0,0-1.644-1.678c-1.469-.025-2.94.013-4.409-.006-.484-.006-.7.139-.675.651.032.763.036,1.529,0,2.292-.022.49.2.6.627.586C594.211,549.357,594.917,549.372,595.623,549.372Z" transform="translate(-777.019 -320.548)" fill="#070504"/>
    <path id="Path_2106" data-name="Path 2106" d="M467.612,556.735c-1.874-.038-4.139.062-6.4-.1-3.076-.224-4.474-1.659-4.5-4.72q-.031-3.484,0-6.969c.027-3.14,1.373-4.677,4.515-4.764,4.584-.127,9.174-.057,13.762-.086.511,0,.657.2.636.686a20.568,20.568,0,0,0,.005,2.292c.046.663-.18.844-.842.838-3.47-.033-6.942-.066-10.411.009-1.587.034-2.323.592-2.585,1.723-.146.63-.01.825.656.821,4.059-.023,8.118.009,12.176-.023.738-.006,1.1.125,1,.951-.109.923.39,2.135-.2,2.709-.542.527-1.736.14-2.641.144-3.412.014-6.824.032-10.235-.014-.838-.011-.927.268-.732.969a2.18,2.18,0,0,0,2.454,1.688c3.382.015,6.765,0,10.147.008,1.411,0,1.206-.085,1.188,1.158-.013.867.386,1.986-.186,2.533-.528.5-1.628.133-2.475.145C471.3,556.752,469.648,556.735,467.612,556.735Z" transform="translate(-679.125 -321.272)" fill="#070504"/>
    <path id="Path_2107" data-name="Path 2107" d="M95.513,540.348c1.735,0,3.475-.09,5.2.021,2.828.182,4.072,1.582,4.2,4.2a70.387,70.387,0,0,1-.022,8.2,3.838,3.838,0,0,1-3.976,3.995,74.587,74.587,0,0,1-10.753,0c-2.721-.2-4.12-1.8-4.131-4.525-.009-2.324.037-4.648-.023-6.97a4.852,4.852,0,0,1,.442-2.677,4.421,4.421,0,0,1,4.031-2.241c1.672-.083,3.351-.018,5.027-.018Zm4.433,8.383c0-.932.022-1.669,0-2.4-.053-1.491-.676-2.166-2.164-2.224-1.468-.057-2.942-.052-4.411-.006a2.042,2.042,0,0,0-2.271,2.083,24.1,24.1,0,0,0,.019,4.93,1.857,1.857,0,0,0,1.785,1.873,25.829,25.829,0,0,0,5.367-.013,1.723,1.723,0,0,0,1.576-1.536A17.1,17.1,0,0,0,99.946,548.731Z" transform="translate(-373.884 -321.453)" fill="#070504"/>
    <path id="Path_2108" data-name="Path 2108" d="M218.854,556.332a27.487,27.487,0,0,1-5.635-.09,3.233,3.233,0,0,1-2.859-1.909,6.44,6.44,0,0,1-.565-2.556c.011-2.441-.03-4.883.014-7.323.058-3.177,1.3-4.339,4.192-4.562a83.375,83.375,0,0,1,10.317-.034c2.991.139,4.324,1.662,4.389,4.829.037,1.788.165,1.452-1.4,1.469-.971.011-1.941-.013-2.912.007-.446.009-.676-.089-.755-.6-.223-1.446-.768-1.92-2.231-1.958-1.411-.036-2.824-.042-4.235,0a2.157,2.157,0,0,0-2.378,2.352q-.065,2.116,0,4.234a2.148,2.148,0,0,0,2.284,2.367c1.468.063,2.942.058,4.411.007,1.414-.049,1.961-.548,2.149-1.951.075-.558.3-.659.794-.649,1.205.025,2.412.02,3.617-.007.475-.011.723.114.674.635-.03.321,0,.647-.008.97-.1,3.183-1.468,4.616-4.659,4.757C222.324,556.4,220.588,556.332,218.854,556.332Z" transform="translate(-475.813 -320.961)" fill="#070504"/>
    <path id="Path_2109" data-name="Path 2109" d="M861.117,548.352c0-2.441.039-4.883-.021-7.322-.021-.846.262-1.057,1.046-1.007a21.84,21.84,0,0,0,2.822-.007c.846-.056,1.223.153,1.147,1.1-.093,1.169-.023,2.351-.023,3.527,0,1.115,0,1.111,1.158,1.111,2.471,0,4.941-.008,7.412.014a12.139,12.139,0,0,1,1.928.175,3.64,3.64,0,0,1,3.238,2.937,10.066,10.066,0,0,1-.018,4.634c-.5,1.988-1.791,2.9-4.123,3.031-4.261.244-8.526.071-12.789.114-1.776.018-1.776,0-1.776-1.782Q861.117,551.616,861.117,548.352Zm8.953,4.477v-.005c1.026,0,2.053.005,3.079,0,1.2-.008,1.95-.671,1.923-1.679a1.72,1.72,0,0,0-1.912-1.627c-1.525-.007-3.05-.025-4.575.011-.807.019-1.878-.383-2.354.175-.49.573-.08,1.631-.153,2.473-.044.5.149.674.649.663C867.84,552.81,868.955,552.828,870.069,552.828Z" transform="translate(-1012.123 -321.202)" fill="#070504"/>
    <path id="Path_2110" data-name="Path 2110" d="M-37.233,548.764c0-2.529.017-5.058-.014-7.586-.008-.624.206-.807.806-.8,4.323.017,8.646.009,12.969.013.293,0,.587.031.88.059,2.724.26,3.971,1.454,4.232,4.163a10.063,10.063,0,0,1-.154,3.421c-.521,2.083-1.908,3.115-4.488,3.175-2.763.064-5.529.052-8.292.008-.762-.012-1.041.174-1.013.961.049,1.38-.014,2.764.011,4.145.01.507-.079.737-.664.711-1.145-.05-2.294-.045-3.44-.006-.646.022-.861-.178-.85-.848C-37.208,553.7-37.232,551.233-37.233,548.764Zm9.041-4.586v0H-29.78c-2.728,0-2.718,0-2.516,2.735.031.42.177.559.585.557,2.265-.013,4.53.012,6.795-.02a1.707,1.707,0,0,0,1.627-1.639,1.684,1.684,0,0,0-1.726-1.624C-26.074,544.164-27.133,544.178-28.192,544.178Z" transform="translate(-272.395 -321.503)" fill="#070504"/>
    <path id="Path_2111" data-name="Path 2111" d="M352.211,548.372c0,2.5-.022,5,.015,7.5.01.669-.2.868-.852.84a31.535,31.535,0,0,0-3.352.009c-.722.046-.817-.253-.806-.86.031-1.646-.01-3.294.019-4.941.009-.524-.114-.715-.679-.709q-3.794.044-7.589,0c-.582-.007-.677.22-.669.723.025,1.676-.009,3.353.021,5.029.01.576-.181.774-.759.757q-1.763-.052-3.529,0c-.564.017-.689-.22-.688-.732q.023-7.588,0-15.177c0-.587.2-.762.762-.745q1.675.05,3.353,0c.634-.02.881.176.862.85-.046,1.587,0,3.176-.026,4.764-.01.55.116.771.729.762,2.47-.035,4.942-.028,7.412,0,.592.006.823-.138.8-.78-.047-1.587.005-3.177-.031-4.764-.013-.591.131-.85.773-.827,1.146.04,2.3.036,3.441-.005.62-.022.8.2.8.807C352.194,543.371,352.211,545.872,352.211,548.372Z" transform="translate(-577.553 -321.247)" fill="#070504"/>
    <path id="Path_2112" data-name="Path 2112" d="M751.228,540.084c2.852,0,5.7.021,8.555-.014.726-.009,1.019.2.93.943-.112.924.4,2.13-.208,2.709-.556.527-1.737.132-2.643.15-1.029.021-2.058-.005-3.087.007-1.333.015-1.194-.2-1.2,1.241-.009,3.557-.023,7.114.017,10.67.008.748-.221.971-.946.93a24.562,24.562,0,0,0-3,0c-.8.053-1.057-.189-1.048-1.01.041-3.645-.006-7.29.037-10.935.009-.75-.194-.939-.926-.916-1.733.055-3.469,0-5.2.029-.551.01-.716-.168-.688-.7a22.077,22.077,0,0,0,0-2.38c-.034-.6.2-.741.764-.736,2.881.024,5.762.011,8.643.011Z" transform="translate(-913.906 -321.252)" fill="#070504"/>
    <path id="Path_2113" data-name="Path 2113" d="M-204.111,402.4q0-9.615,0-19.231c0-1.079.065-1.147,1.156-1.149,1.412,0,2.824.019,4.235-.008.729-.014,1.046.216,1.045,1.015q-.027,19.319.008,38.637c0,.781-.164,1.091-1,1.056-1.527-.064-3.058-.047-4.587-.007-.7.018-.873-.207-.87-.906C-204.1,415.334-204.111,408.865-204.111,402.4Z" transform="translate(-134.979 -191.099)" fill="#fed200"/>
    <path id="Path_2114" data-name="Path 2114" d="M-204.618,200.338c0-5.351.015-10.7-.016-16.053,0-.733.189-.955.927-.93,1.645.055,3.293.029,4.94.011.481-.005.731.049.73.655q-.028,16.274,0,32.547c0,.537-.151.713-.7.7-1.676-.03-3.353-.045-5.028.01-.713.023-.876-.208-.873-.89C-204.607,211.04-204.619,205.689-204.618,200.338Z" transform="translate(-134.563 -27.52)" fill="#070504"/>
    <path id="Path_2115" data-name="Path 2115" d="M-284.677,307.888c-2.122-2.073-4.153-4.069-6.2-6.046a1.075,1.075,0,0,1-.3-.875q0-14.824-.008-29.647c0-.549.157-.695.7-.683,1.617.035,3.237.061,4.853-.008.79-.034.975.2.973.971q-.04,15.441-.018,30.883Z" transform="translate(-63.298 -99.383)" fill="#070504"/>
    <path id="Path_2116" data-name="Path 2116" d="M-241.288,244.273c0,5.35-.014,10.7.016,16.051,0,.7-.177.89-.874.867-1.556-.052-3.117-.049-4.673.012-.772.03-.982-.195-.98-.979q.042-14.772.017-29.545c0-.911.025-1.823-.007-2.734-.018-.511.178-.657.667-.651,1.676.023,3.353.049,5.027-.005.689-.022.824.2.821.844C-241.3,233.514-241.288,238.893-241.288,244.273Z" transform="translate(-99.02 -63.698)" fill="#070504"/>
    <path id="Path_2117" data-name="Path 2117" d="M-154.347,244.293c0,5.324-.015,10.649.015,15.973,0,.706-.136.97-.9.942-1.645-.06-3.295-.044-4.941-.011-.543.011-.7-.147-.7-.691q.022-16.237,0-32.475c0-.6.209-.738.769-.727,1.647.034,3.3.047,4.942,0,.673-.02.83.19.827.841C-154.357,233.526-154.346,238.91-154.347,244.293Z" transform="translate(-170.601 -63.708)" fill="#070504"/>
    <path id="Path_2118" data-name="Path 2118" d="M-117.286,307.748a1.5,1.5,0,0,1-.109-.87q-.006-17.642-.019-35.284c0-.79.195-.99.969-.959,1.615.065,3.235.043,4.851.007.546-.012.7.151.694.69q-.02,14.775,0,29.55a1.128,1.128,0,0,1-.3.88q-2.936,2.925-5.857,5.865A.933.933,0,0,1-117.286,307.748Z" transform="translate(-206.384 -99.389)" fill="#070504"/>
    <path id="Path_2119" data-name="Path 2119" d="M-247.939,442.234c0-5.119.018-10.237-.019-15.355-.006-.841.207-1.111,1.072-1.069,1.526.075,3.059.037,4.588.007.547-.011.776.111.775.725q-.024,15.664.007,31.328c0,.687-.174.914-.881.908-1.526-.013-3.054-.085-4.582.045-.65.056-.983-.193-.977-.969C-247.921,452.648-247.938,447.441-247.939,442.234Z" transform="translate(-98.888 -227.164)" fill="#fed200"/>
    <path id="Path_2120" data-name="Path 2120" d="M-154,442.382c0,5.143-.017,10.287.017,15.43.005.791-.263,1.025-1.009,1.006q-2.291-.059-4.584-.01c-.628.014-.871-.139-.869-.826q.038-15.694.017-31.389c0-.583.171-.759.75-.745,1.616.037,3.234.05,4.849,0,.664-.019.842.176.839.836-.026,5.232-.015,10.463-.015,15.695Z" transform="translate(-170.952 -227.198)" fill="#fed200"/>
    <path id="Path_2121" data-name="Path 2121" d="M-328.652,336.427a46.74,46.74,0,0,0-3.894-3.962,6.554,6.554,0,0,1-2.527-6.087c.235-3.689.078-7.4.043-11.107-.007-.671.184-.85.834-.834,1.675.042,3.352.027,5.027,0,.477-.006.667.109.665.633q-.023,10.45-.012,20.9A2.719,2.719,0,0,1-328.652,336.427Z" transform="translate(-27.136 -135.458)" fill="#070504"/>
    <path id="Path_2122" data-name="Path 2122" d="M-73.986,335.941v-.762c0-6.7.012-13.4-.017-20.1,0-.708.192-.891.883-.868,1.644.053,3.291.035,4.937.01.511-.008.719.1.717.673-.023,4.76-.014,9.521-.011,14.282a1.016,1.016,0,0,1-.268.8q-3.011,3.031-6,6.081Z" transform="translate(-242.131 -135.271)" fill="#070504"/>
  </g>
</svg>
