<svg xmlns="http://www.w3.org/2000/svg" width="262.584" height="70.915" viewBox="0 0 262.584 70.915">
  <g id="лукойл" transform="translate(0 16.642)">
    <g id="Rectangle_1379" data-name="Rectangle 1379" transform="translate(4 -13)" fill="#fff" stroke="#707070" stroke-width="1">
      <rect width="63" height="62" stroke="none"/>
      <rect x="0.5" y="0.5" width="62" height="61" fill="none"/>
    </g>
    <path id="Path_1990" data-name="Path 1990" d="M35.279,70.518H1.875c-1.836,0-1.836,0-1.836-1.8Q.039,35.259,0,1.8C0,.43.352,0,1.758,0Q35.22.059,68.682,0c1.406,0,1.758.508,1.758,1.8q-.059,33.462,0,66.924c0,1.328-.391,1.8-1.8,1.8C57.547,70.479,46.413,70.518,35.279,70.518Zm5.157-10.2H64.15c1.875,0,1.914,0,1.211-1.758-3.594-9.181-7.149-18.362-10.822-27.5a5.939,5.939,0,0,1,.586-6.017c2.344-3.633,4.571-7.306,6.837-11.017a3.763,3.763,0,0,0-1.016-5.391A3.941,3.941,0,0,0,55.4,10.08c-2.813,4.571-5.587,9.142-8.361,13.752a7.845,7.845,0,0,0-.547,7.54C49.265,37.818,52,44.342,54.735,50.789c.82,1.914.781,1.953-1.25,1.953H20.355c-3.008,0-3.79-.781-3.79-3.79V13.674a12.577,12.577,0,0,0-.234-2.7,3.543,3.543,0,0,0-3.36-2.891c-2.539-.2-4.18,1.524-4.18,4.376V52c0,5.079,3.282,8.322,8.4,8.322ZM22.191,26.1h0c0,4.688-.039,9.376.039,14.025a10,10,0,0,0,10.236,9.728c5.47.078,10.236-4.141,10.314-9.533.156-9.533.078-19.065.039-28.637A3.538,3.538,0,0,0,38.99,7.97a3.5,3.5,0,0,0-3.711,3.672c-.039.547,0,1.094,0,1.641V38.756c0,2.032-1.055,3.243-2.7,3.282-1.68.039-2.813-1.25-2.852-3.282V12.189c0-2.618-1.446-4.18-3.79-4.18-2.383,0-3.751,1.446-3.751,4.141C22.191,16.838,22.191,21.448,22.191,26.1Z" transform="translate(0 -16.642)" fill="#e22739"/>
    <path id="Path_1991" data-name="Path 1991" d="M596.132,53.95a21.155,21.155,0,0,1-9.328-1.795A17.571,17.571,0,0,1,577.041,41.6a21.562,21.562,0,0,1,1.305-18.329c3.019-5.493,7.886-8.4,13.978-9.273a24.23,24.23,0,0,1,11.068.789,17.5,17.5,0,0,1,11.694,11.068c2.747,7.615,1.985,14.9-3.127,21.375-3.073,3.889-7.315,5.793-12.156,6.527A27.674,27.674,0,0,1,596.132,53.95Zm9.328-20.043a14.053,14.053,0,0,0-.272-2.828,10.243,10.243,0,0,0-.68-2.366A9.05,9.05,0,0,0,589.061,26.4c-3.046,3.834-3.046,11.014.027,14.957a9.055,9.055,0,0,0,13.489.653C604.752,39.727,605.351,36.9,605.459,33.907Z" transform="translate(-399.495 0.315)" fill="#fff"/>
    <path id="Path_1992" data-name="Path 1992" d="M459.555,40.927v9.953c0,1.441-.027,2.91,0,4.351,0,.68-.245.952-.952.952q-4.365-.041-8.73,0c-.761,0-1.006-.3-.979-1.006.027-.625,0-1.251,0-1.9V20.449c0-1.523,0-1.55,1.523-1.55h7.7c1.414,0,1.441.027,1.441,1.414v13.6c.381-.027.462-.354.625-.544q4.854-6.731,9.681-13.489a2.057,2.057,0,0,1,1.958-1.006c3.236.054,6.445.027,9.681.027.354,0,.87-.163,1.061.19.218.381-.245.68-.462.952L469.7,35.869c-.87,1.115-.87,1.088-.027,2.2,4.242,5.629,8.512,11.259,12.754,16.888.245.3.734.625.517,1.033-.218.381-.761.163-1.142.163-3.535,0-7.071-.027-10.633.027a1.772,1.772,0,0,1-1.632-.87c-3.046-4.569-6.146-9.137-9.219-13.679a7.705,7.705,0,0,0-.544-.761C459.691,40.9,459.637,40.9,459.555,40.927Z" transform="translate(-307.245 -3.441)" fill="#fff"/>
    <path id="Path_1993" data-name="Path 1993" d="M304.245,31.265c0-3.7.027-7.4-.027-11.1,0-.87.3-1.169,1.142-1.142,2.747.027,5.493.054,8.24,0,.925-.027,1.169.354,1.169,1.224-.027,6.69-.027,13.407,0,20.1a15.682,15.682,0,0,0,.354,3.563c.734,3.019,2.638,4.406,5.874,4.324a5.214,5.214,0,0,0,5.194-4.6,16.115,16.115,0,0,0,.218-3.019V20.414c0-1.387,0-1.387,1.36-1.387,2.692,0,5.385.027,8.05-.027.87,0,1.251.272,1.224,1.2-.027,6.853,0,13.733-.027,20.587a22.386,22.386,0,0,1-.952,6.826A12.956,12.956,0,0,1,326.98,56.5a22.282,22.282,0,0,1-12.727,0c-5.575-1.632-8.621-5.575-9.681-11.15a21.133,21.133,0,0,1-.381-4.324C304.245,37.764,304.245,34.5,304.245,31.265Z" transform="translate(-201.893 -3.542)" fill="#fff"/>
    <path id="Path_1994" data-name="Path 1994" d="M210.022,37.6c0-5.793.027-11.558-.027-17.35,0-.952.3-1.278,1.251-1.251q4.079.082,8.158,0c.925-.027,1.169.326,1.169,1.224q-.041,12.809-.027,25.59c0,1.414,0,1.414,1.469,1.414,2.855,0,5.684.027,8.539-.027.843,0,1.2.218,1.169,1.115-.054,2.284-.054,4.542,0,6.826.027.9-.326,1.115-1.169,1.115-6.472-.027-12.972-.027-19.444,0-.9,0-1.142-.3-1.115-1.142C210.049,49.291,210.022,43.444,210.022,37.6Z" transform="translate(-133.314 -3.538)" fill="#fff"/>
    <path id="Path_1995" data-name="Path 1995" d="M813.7,37.683V20.305c0-1.278.027-1.305,1.251-1.305h8.077c1.169,0,1.224.054,1.224,1.224V45.651c0,1.55,0,1.577,1.523,1.577,2.855,0,5.684.027,8.539-.027.816,0,1.115.272,1.115,1.088q-.041,3.467,0,6.935c0,.761-.272,1.033-1.061,1.033-6.527-.027-13.026-.027-19.553,0-.9,0-1.115-.3-1.115-1.142C813.727,49.322,813.7,43.5,813.7,37.683Z" transform="translate(-572.844 -3.542)" fill="#fff"/>
    <path id="Path_1996" data-name="Path 1996" d="M758.052,37.805c0,5.793-.027,11.558.027,17.35,0,.979-.3,1.251-1.251,1.224q-4.12-.082-8.24,0c-.843,0-1.088-.3-1.088-1.115q.041-17.541,0-35.081c0-.843.3-1.115,1.115-1.088,2.774.027,5.575.027,8.349,0,.87,0,1.115.326,1.115,1.169C758.024,26.111,758.052,31.958,758.052,37.805Z" transform="translate(-524.647 -3.61)" fill="#fff"/>
  </g>
</svg>
