<svg xmlns="http://www.w3.org/2000/svg" width="261.808" height="69.422" viewBox="0 0 261.808 69.422">
  <g id="татнефть_лого" data-name="татнефть лого" transform="translate(-2.702 -7.463)">
    <path id="Path_1964" data-name="Path 1964" d="M1038.784,252.034h25.008c1.875,0,1.875,0,1.875,1.924,0,.9-.023,1.807,0,2.709.023.765-.315,1.042-1.063,1.042-2.4-.023-4.793-.013-7.188,0-1.282,0-1.332.056-1.334,1.373v15.936c0,1.38-.048,1.428-1.386,1.43h-7.811c-1.384,0-1.486-.1-1.488-1.475V259.134c0-1.434,0-1.438-1.459-1.438h-20.006c-1.388,0-1.388,0-1.4,1.38-.021,3.107-.021,3.107,3.034,3.109,2.465,0,4.931.029,7.394-.015.9-.015,1.25.306,1.217,1.211-.048,1-.048,2.015,0,3.02.048.952-.354,1.29-1.288,1.28-2.986-.033-5.973-.017-8.961-.01-1.34,0-1.4.058-1.4,1.419,0,2.084-.023,4.168,0,6.252,0,.8-.3,1.117-1.107,1.111q-4.216-.033-8.436,0c-.863,0-1.163-.369-1.161-1.194q.019-10.989,0-21.977c0-1.061.5-1.25,1.417-1.25Q1026.026,252.053,1038.784,252.034Z" transform="translate(-801.158 -199.69)" fill="#00ab69"/>
    <path id="Path_1965" data-name="Path 1965" d="M703.541,264.191v10.837c0,1.3-.065,1.373-1.332,1.38-1.563,0-3.126-.09-4.685.029a4.95,4.95,0,0,1-3.6-1.24c-4.814-3.751-9.672-7.456-14.517-11.174-.208-.156-.383-.5-.7-.308-.271.165-.177.5-.177.771V274.7c0,1.7-.017,1.717-1.763,1.721-1.492,0-2.986-.05-4.476.015-1.073.044-1.273-.494-1.269-1.4.019-5.971,0-11.939,0-17.91,0-1.319.027-2.638,0-3.96-.021-.852.342-1.173,1.182-1.163q3.126.044,6.252,0a3.255,3.255,0,0,1,1.984.788q7.227,5.2,14.463,10.374c.273.194.552.584.892.417.417-.2.208-.686.208-1.042.015-3.055,0-6.11.01-9.169,0-1.25.108-1.363,1.369-1.371,1.63-.01,3.263.023,4.893-.015.923-.021,1.29.3,1.278,1.275C703.516,256.9,703.541,260.546,703.541,264.191Z" transform="translate(-531.376 -199.647)" fill="#00ab69"/>
    <path id="Path_1966" data-name="Path 1966" d="M867.442,276.475H854.63c-1.375,0-1.53-.14-1.53-1.459V253.552c0-1.311.177-1.482,1.527-1.482h25.216c1.667,0,1.763.117,1.782,1.769.01.834,0,1.667,0,2.5-.015,1.261-.123,1.375-1.365,1.377h-14.8c-1.523,0-1.538,0-1.528,1.459.019,2.753-.3,2.394,2.361,2.409,3.368.017,6.735.027,10.1,0,.927-.01,1.346.273,1.288,1.25a25.7,25.7,0,0,0,0,2.918c.054.992-.354,1.357-1.34,1.346-3.609-.033-7.221-.017-10.837-.017-1.575,0-1.588,0-1.578,1.525.019,2.709-.3,2.372,2.392,2.38,4.654.017,9.307,0,13.963,0,1.509,0,1.561.056,1.565,1.6,0,.869-.031,1.738,0,2.6.042.929-.327,1.288-1.284,1.282C876.192,276.457,871.818,276.475,867.442,276.475Z" transform="translate(-675.507 -199.722)" fill="#00ab69"/>
    <path id="Path_1967" data-name="Path 1967" d="M386.584,276.991c-1.6,0-3.195-.035-4.793.017a1.173,1.173,0,0,1-1.25-.7c-.417-.834-.854-1.667-1.267-2.5a1.558,1.558,0,0,0-1.55-.984c-4.062.027-8.127.023-12.185.01-.877,0-1.575.194-1.876,1.125-.063.192-.254.346-.308.54-.625,2.213-2.136,2.8-4.26,2.5a24.741,24.741,0,0,0-2.809-.023c-1.061-.021-1.213-.244-.717-1.173,1.388-2.6,2.807-5.187,4.218-7.777,2.553-4.693,5.129-9.378,7.644-14.088a1.979,1.979,0,0,1,2.017-1.25c2.984.058,5.971.048,8.961,0a1.817,1.817,0,0,1,1.811,1.092q5.858,10.789,11.743,21.565c.115.208.208.436.327.65.352.669.133.973-.6.971h-5.1Zm-15.167-9.445h3.334c1.071-.012,1.152-.127.7-1.042-1.148-2.33-2.322-4.645-3.466-6.975-.25-.506-.45-.723-.786-.075q-1.861,3.6-3.732,7.19c-.388.744-.042.917.625.911C369.2,267.547,370.308,267.547,371.417,267.547Z" transform="translate(-281.444 -200.209)" fill="#e8102b"/>
    <path id="Path_1968" data-name="Path 1968" d="M39.358,50.618a15.583,15.583,0,0,1-3.068,9.507,66.293,66.293,0,0,1-7.725,8.84c-3.168,3.282-6.121,6.742-7.744,11.105a16.168,16.168,0,0,0-.3,10.314c.056.208.121.4.171.6s.156.436-.048.577c-.256.177-.469-.01-.625-.208-.569-.7-1.161-1.386-1.667-2.126C15.947,85.767,14,82.1,13.88,77.766a16.4,16.4,0,0,1,3.247-9.705c2.4-3.591,5.583-6.508,8.521-9.649a31.642,31.642,0,0,0,6.46-9.128,15.941,15.941,0,0,0,.625-11.376,1.7,1.7,0,0,1-.06-.208c-.063-.323-.361-.723.019-.95s.59.24.8.481A30.7,30.7,0,0,1,37.9,44.266,13.64,13.64,0,0,1,39.358,50.618Z" transform="translate(-11.173 -29.226)" fill="#00ab69"/>
    <path id="Path_1969" data-name="Path 1969" d="M85.854,106.82a4.684,4.684,0,0,1,1.79,1.79,26.747,26.747,0,0,1,4.128,7.2,15.043,15.043,0,0,1-1.342,13.583,52.8,52.8,0,0,1-7.5,9.028c-2.763,2.872-5.533,5.741-7.463,9.3a17.18,17.18,0,0,0-1.7,12.493c.1.417.438.959-.1,1.223-.6.3-.817-.371-1.086-.719a27,27,0,0,1-4.551-8.361,14.618,14.618,0,0,1,1.648-12.468,56.68,56.68,0,0,1,8.613-10.253c3.147-3.184,5.991-6.579,7.592-10.826a16.839,16.839,0,0,0,.2-10.837A2.4,2.4,0,0,1,85.854,106.82Z" transform="translate(-53.471 -84.742)" fill="#e7112d"/>
    <path id="Path_1970" data-name="Path 1970" d="M245.836,252.01h13.337c1.33,0,1.428.106,1.438,1.415v2.918c0,1.263-.079,1.33-1.384,1.334-2.257,0-4.514.033-6.771-.015-.927-.021-1.263.26-1.294,1.234-.173,5.21-.154,10.409-.012,15.613.046,1.667-.156,1.971-1.826,2.021-2.04.063-4.085-.027-6.127-.044a12.125,12.125,0,0,0-1.557.035c-.952.115-1.313-.263-1.3-1.223.033-3.576.015-7.152.015-10.728,0-1.909-.037-3.82.015-5.729.025-.927-.329-1.2-1.221-1.18-2.292.046-4.585-.015-6.877.027-.95.019-1.323-.352-1.286-1.286.04-1,.052-2.015,0-3.02-.058-1.063.417-1.39,1.428-1.384C236.879,252.027,241.358,252.01,245.836,252.01Z" transform="translate(-183.032 -199.666)" fill="#e8102b"/>
    <path id="Path_1971" data-name="Path 1971" d="M531.221,252.06h12.921c1.378,0,1.442.088,1.469,1.475.021.971.088,1.94.108,2.918.021.89-.369,1.313-1.327,1.288-2.011-.048-4.028.035-6.044-.033-1.042-.035-1.4.283-1.386,1.353.046,5.035.019,10.07.017,15.1v.938c-.062,1.321-.142,1.375-1.459,1.39-2.57.025-5.139-.094-7.711.073-1.35.087-1.667-.223-1.667-1.592,0-5.312-.025-10.628.012-15.938,0-.982-.267-1.352-1.29-1.325-2.324.06-4.654,0-6.979.025-.854.013-1.194-.3-1.156-1.157.044-1,0-2.013,0-3.022,0-1.4.083-1.488,1.459-1.49h11.147Z" transform="translate(-409.233 -199.714)" fill="#e8102b"/>
  </g>
</svg>
